<?xml version="1.0" encoding="UTF-8"?><svg id="AgentRed" xmlns="http://www.w3.org/2000/svg" viewBox="0 0 800 450"><defs><style>.cls-1{fill:#fff;}.cls-2{fill:#f8f8fa;}.cls-3{fill:#c41e2a;}</style></defs><path class="cls-2" d="M460.09,257.54H52.45s0-67.34,0-67.34c0-46.05,37.33-83.37,83.37-83.37h355.77s-31.51,150.72-31.51,150.72Z"/><path class="cls-3" d="M491.46,106.83h256.08v67.34c0,46.05-37.33,83.37-83.37,83.37h-204.22l31.51-150.72Z"/><path class="cls-2" d="M509.77,134.47h36.27c18.54,0,28.15,10.69,28.15,23.96,0,2.03-.27,4.06-.68,6.09-2.03,9.88-8.12,16.78-17.32,19.9,5.82,2.57,8.26,6.77,8.26,12.59v.54c-.13,7.04-5.01,20.17-3.52,31.67h-26.8c-1.08-10.69,4.06-24.09,4.06-31.4,0-3.65-1.76-5.68-5.82-5.68h-8.26l-7.85,37.08h-26.66l20.17-94.74ZM532.37,153.55l-4.47,20.71h9.2c5.14,0,8.93-3.11,10.29-9.34.27-1.35.41-2.57.41-3.65,0-5.01-2.84-7.71-8.53-7.71h-6.9Z"/><path class="cls-2" d="M585.97,134.47h61.58l-4.2,20.03h-35.05l-3.38,16.51h26.39l-4.33,19.49h-26.26l-4.06,19.22h34.92l-4.2,19.49h-61.58l20.17-94.74Z"/><path class="cls-2" d="M653.51,134.47h26.93c23.69,0,36.14,12.59,36.14,35.05,0,5.01-.54,10.42-1.76,16.24-6.23,29.91-20.71,43.45-44.66,43.45h-36.81l20.17-94.74ZM675.71,155.31l-11.23,53.46h5.01c8.12,0,15.16-6.5,18.81-25.58,1.08-5.55,1.62-10.15,1.62-13.94,0-9.88-3.79-13.94-11.91-13.94h-2.3Z"/><path d="M123.65,134.47h32.48l3.38,94.74h-25.31l.14-17.32h-20.84l-7.31,17.32h-26.12l43.58-94.74ZM120.8,194.15h13.53l.41-33.7-13.94,33.7Z"/><path d="M207.56,218.65c-5.82,7.99-12.86,12.18-20.71,12.18-15.02,0-23.28-11.5-23.28-31.4,0-6.09.81-13.13,2.44-20.71,6.77-31.4,21.11-46.02,42.23-46.02s32.62,12.32,32.62,32.75c0,1.22,0,2.57-.14,3.92h-25.31c.14-1.22.14-2.44.14-3.65,0-6.77-1.76-12.32-7.58-12.32-6.23,0-11.1,7.17-15.43,27.88-1.49,6.63-2.17,12.05-2.17,16.38,0,8.8,2.84,13.13,7.85,13.13,5.41,0,10.56-5.01,14.21-17.46h-11.91l3.65-17.05h35.46l-11.23,52.92h-22.87l2.03-10.56Z"/><path d="M255.34,134.47h61.58l-4.2,20.03h-35.05l-3.38,16.51h26.39l-4.33,19.49h-26.26l-4.06,19.22h34.92l-4.2,19.49h-61.58l20.17-94.74Z"/><path d="M322.88,134.47h27.07l4.33,26.93,4.47,28.83,5.68-28.83,5.55-26.93h21.79l-20.03,94.74h-27.2l-4.33-26.8-4.33-28.96-5.82,28.96-5.55,26.8h-21.66l20.03-94.74Z"/><path d="M416,154.63h-23.28l4.33-20.17h72.95l-4.33,20.17h-23.01l-15.84,74.58h-26.66l15.84-74.58Z"/><path class="cls-1" d="M54.9,307.74v-.77c0-2.61.13-4.8.38-6.57.26-1.77.7-3.21,1.32-4.32.63-1.11,1.48-1.96,2.56-2.55s2.44-.99,4.07-1.2c1.64-.21,3.6-.32,5.9-.32h7.73c2.63,0,4.85.12,6.66.37,1.81.25,3.27.74,4.37,1.48,1.1.74,1.91,1.81,2.41,3.24.5,1.42.75,3.31.75,5.66h-3.68c0-1.85-.17-3.29-.5-4.32-.33-1.03-.89-1.77-1.68-2.23-.79-.46-1.86-.74-3.21-.85-1.35-.11-3.06-.16-5.12-.16h-7.73c-1.83,0-3.37.05-4.62.16-1.25.11-2.27.36-3.06.75-.79.39-1.39,1.01-1.8,1.85-.42.84-.7,1.99-.85,3.45-.15,1.46-.23,3.31-.23,5.56v.77c0,2.17.08,3.97.23,5.41.15,1.43.44,2.58.85,3.43.42.86,1.02,1.5,1.8,1.92.79.42,1.81.7,3.06.82,1.25.13,2.79.19,4.62.19h7.73c2.06,0,3.76-.04,5.12-.13,1.35-.09,2.43-.35,3.21-.79.79-.43,1.34-1.16,1.68-2.18.33-1.02.5-2.44.5-4.28h3.68c0,2.35-.25,4.23-.75,5.64-.5,1.41-1.3,2.46-2.41,3.17-1.11.71-2.56,1.18-4.37,1.41-1.81.23-4.03.34-6.66.34h-7.73c-2.88,0-5.24-.2-7.09-.58-1.85-.39-3.3-1.11-4.34-2.16-1.04-1.05-1.77-2.56-2.19-4.52-.42-1.97-.62-4.53-.62-7.69Z"/><path class="cls-1" d="M110.42,322.69c-2.88,0-5.24-.2-7.09-.58s-3.3-1.11-4.34-2.16c-1.04-1.05-1.77-2.56-2.19-4.52-.42-1.97-.62-4.53-.62-7.69v-15.11h3.68v15.11c0,2.17.08,3.97.23,5.41.15,1.43.44,2.58.86,3.43.42.86,1.03,1.5,1.81,1.92.79.42,1.8.7,3.06.82,1.25.13,2.79.19,4.6.19h6.94c1.83,0,3.36-.06,4.61-.19,1.25-.13,2.26-.4,3.05-.82.79-.42,1.39-1.06,1.81-1.92.42-.86.71-2,.86-3.43.15-1.43.23-3.23.23-5.41v-15.11h3.68v15.11c0,3.16-.21,5.72-.62,7.69-.42,1.97-1.14,3.48-2.19,4.52-1.04,1.05-2.49,1.77-4.34,2.16s-4.22.58-7.09.58h-6.94Z"/><path class="cls-1" d="M169.23,313.57c0-1.14-.09-2.03-.27-2.68-.18-.65-.58-1.13-1.21-1.45-.63-.31-1.6-.52-2.91-.61-1.32-.1-3.12-.16-5.41-.2l-10.66-.15c-2.63-.04-4.75-.2-6.35-.48-1.6-.28-2.81-.72-3.62-1.33-.82-.61-1.36-1.42-1.64-2.44-.28-1.02-.41-2.3-.41-3.83,0-1.67.19-3.05.57-4.14.38-1.09,1.06-1.94,2.05-2.55.99-.61,2.39-1.04,4.21-1.29,1.81-.25,4.16-.37,7.04-.37h8.2c2.61,0,4.78.08,6.52.25,1.74.17,3.12.55,4.14,1.15,1.02.6,1.75,1.53,2.19,2.8.44,1.26.66,3,.66,5.21h-3.68c0-1.71-.16-3.01-.49-3.88-.33-.88-.86-1.47-1.61-1.79s-1.75-.49-3.02-.52c-1.27-.03-2.84-.04-4.72-.04h-8.01c-2.29,0-4.12.04-5.49.13-1.37.09-2.41.29-3.12.61-.7.32-1.17.83-1.41,1.53-.24.7-.35,1.67-.35,2.89,0,1.04.08,1.87.25,2.49.17.63.54,1.1,1.12,1.43.58.33,1.48.55,2.69.67,1.21.12,2.87.19,4.96.22l11.43.15c2.68.04,4.83.2,6.43.47,1.6.28,2.81.72,3.6,1.33.8.61,1.33,1.44,1.59,2.48.26,1.04.39,2.35.39,3.94,0,1.73-.16,3.17-.49,4.34-.33,1.17-.96,2.11-1.89,2.81-.93.7-2.28,1.21-4.04,1.51s-4.08.46-6.96.46h-8.97c-2.62,0-4.82-.12-6.59-.34-1.78-.23-3.19-.69-4.25-1.39s-1.81-1.74-2.27-3.12-.69-3.22-.69-5.52h3.68c0,1.8.15,3.19.44,4.18s.81,1.69,1.54,2.12c.73.43,1.76.68,3.09.77s3.01.12,5.05.12h8.78c2.29,0,4.1-.07,5.42-.22s2.31-.43,2.95-.84c.64-.42,1.05-1.01,1.24-1.79.19-.78.28-1.81.28-3.09Z"/><path class="cls-1" d="M191.79,322.08v-26.38h-14.72v-3.07h33.12v3.07h-14.72v26.38h-3.68Z"/><path class="cls-1" d="M228.7,322.69c-2.88,0-5.24-.2-7.09-.58-1.85-.39-3.3-1.11-4.34-2.16-1.04-1.05-1.77-2.56-2.19-4.52-.42-1.97-.62-4.53-.62-7.69v-.77c0-2.61.13-4.8.38-6.57.26-1.77.7-3.21,1.32-4.32.63-1.11,1.48-1.96,2.56-2.55s2.44-.99,4.07-1.2c1.64-.21,3.6-.32,5.9-.32h7.73c2.3,0,4.27.11,5.9.32,1.64.21,2.99.61,4.07,1.2s1.93,1.44,2.56,2.55c.63,1.11,1.07,2.55,1.32,4.32.26,1.77.38,3.96.38,6.57v.77c0,3.16-.21,5.72-.62,7.69-.42,1.97-1.14,3.48-2.19,4.52s-2.49,1.77-4.34,2.16-4.22.58-7.09.58h-7.73ZM228.7,319.51h7.73c1.83,0,3.37-.06,4.62-.19,1.25-.13,2.27-.4,3.06-.82.79-.42,1.39-1.06,1.8-1.92.42-.86.7-2,.85-3.43.15-1.43.23-3.23.23-5.41v-.77c0-2.25-.08-4.1-.23-5.56-.15-1.46-.44-2.61-.85-3.45-.42-.84-1.02-1.46-1.8-1.85-.79-.39-1.81-.64-3.06-.75-1.25-.11-2.79-.16-4.62-.16h-7.73c-1.83,0-3.37.05-4.62.16-1.25.11-2.27.36-3.06.75-.79.39-1.39,1.01-1.8,1.85-.42.84-.7,1.99-.85,3.45-.15,1.46-.23,3.31-.23,5.56v.77c0,2.17.08,3.97.23,5.41.15,1.43.44,2.58.85,3.43.42.86,1.02,1.5,1.8,1.92.79.42,1.81.7,3.06.82,1.25.13,2.79.19,4.62.19Z"/><path class="cls-1" d="M256.87,322.08v-29.44h5.48l17.81,24.02,17.54-24.02h5.48v29.44h-3.68v-26.11l-17.58,24.17h-3.34l-18.04-24.17v26.11h-3.68Z"/><path class="cls-1" d="M310.63,322.08v-29.44h28.91v3.07h-25.23v9.81h24.17v3.07h-24.17v10.43h25.76v3.07h-29.44Z"/><path class="cls-1" d="M345.05,292.63h19.71c2.88,0,5.19.13,6.95.38,1.76.26,3.09.7,4,1.32.91.63,1.52,1.48,1.84,2.57.32,1.09.48,2.46.48,4.12v.77c0,1.53-.18,2.85-.55,3.96-.36,1.11-1.06,2-2.1,2.68s-2.57,1.17-4.6,1.45l6.4,12.19h-3.68l-6.27-11.92c-.26.01-.52.02-.8.02h-17.7v11.9h-3.68v-29.44ZM348.73,306.99h16.27c2.19,0,3.91-.07,5.17-.22,1.26-.15,2.19-.41,2.78-.78s.97-.89,1.14-1.57c.17-.68.25-1.55.25-2.63v-.77c0-1.21-.12-2.17-.35-2.88-.23-.7-.69-1.22-1.38-1.55-.69-.33-1.72-.55-3.09-.64-1.37-.1-3.2-.14-5.48-.14h-15.32v11.18Z"/><path class="cls-1" d="M396.14,322.08v-29.44h28.91v3.07h-25.23v9.81h24.17v3.07h-24.17v10.43h25.76v3.07h-29.44Z"/><path class="cls-1" d="M428.04,322.08l16.74-15.53-15.51-13.92h5.21l12.84,11.54,12.44-11.54h5.21l-14.99,13.92,17.31,15.53h-5.21l-14.66-13.15-14.17,13.15h-5.21Z"/><path class="cls-1" d="M472.28,322.08v-29.44h19.71c2.88,0,5.19.14,6.95.42s3.09.75,4,1.41,1.52,1.55,1.84,2.66.48,2.51.48,4.17v.77c0,1.58-.16,2.93-.49,4.04-.33,1.11-.96,2-1.89,2.67-.93.68-2.28,1.17-4.04,1.49-1.76.31-4.08.47-6.96.47h-15.91v11.35h-3.68ZM501.57,301.3c0-1.21-.11-2.19-.34-2.91s-.69-1.28-1.38-1.65c-.69-.37-1.72-.62-3.09-.74-1.37-.12-3.19-.18-5.48-.18h-15.32v11.73h15.32c2.29,0,4.12-.07,5.48-.22,1.37-.15,2.4-.42,3.09-.8.69-.39,1.15-.95,1.38-1.67s.34-1.65.34-2.79v-.77Z"/><path class="cls-1" d="M510.37,322.08v-29.44h28.91v3.07h-25.23v9.81h24.17v3.07h-24.17v10.43h25.76v3.07h-29.44Z"/><path class="cls-1" d="M544.8,292.63h19.71c2.88,0,5.19.13,6.95.38s3.09.7,4,1.32,1.52,1.48,1.84,2.57c.32,1.09.48,2.46.48,4.12v.77c0,1.53-.18,2.85-.55,3.96-.36,1.11-1.06,2-2.1,2.68s-2.57,1.17-4.6,1.45l6.4,12.19h-3.68l-6.27-11.92c-.26.01-.52.02-.8.02h-17.7v11.9h-3.68v-29.44ZM548.48,306.99h16.28c2.19,0,3.91-.07,5.17-.22s2.19-.41,2.78-.78c.59-.37.97-.89,1.14-1.57.17-.68.25-1.55.25-2.63v-.77c0-1.21-.11-2.17-.34-2.88-.23-.7-.69-1.22-1.38-1.55-.69-.33-1.72-.55-3.09-.64s-3.19-.14-5.48-.14h-15.32v11.18Z"/><path class="cls-1" d="M584.73,322.08v-29.44h3.68v29.44h-3.68Z"/><path class="cls-1" d="M595.77,322.08v-29.44h28.91v3.07h-25.23v9.81h24.17v3.07h-24.17v10.43h25.76v3.07h-29.44Z"/><path class="cls-1" d="M630.12,322.08v-29.44h3.83l29.58,24.9h.04v-24.9h3.68v29.44h-3.83l-29.58-25.11h-.04v25.11h-3.68Z"/><path class="cls-1" d="M673.39,307.74v-.77c0-2.61.13-4.8.38-6.57.26-1.77.7-3.21,1.32-4.32.63-1.11,1.48-1.96,2.56-2.55s2.44-.99,4.07-1.2,3.6-.32,5.9-.32h7.73c2.63,0,4.85.12,6.66.37,1.81.25,3.27.74,4.37,1.48,1.11.74,1.91,1.81,2.41,3.24.5,1.42.75,3.31.75,5.66h-3.68c0-1.85-.17-3.29-.5-4.32-.33-1.03-.89-1.77-1.68-2.23s-1.86-.74-3.21-.85c-1.35-.11-3.06-.16-5.12-.16h-7.73c-1.83,0-3.37.05-4.62.16-1.25.11-2.27.36-3.06.75s-1.39,1.01-1.8,1.85c-.42.84-.7,1.99-.85,3.45-.15,1.46-.23,3.31-.23,5.56v.77c0,2.17.08,3.97.23,5.41.15,1.43.44,2.58.85,3.43.42.86,1.02,1.5,1.8,1.92s1.8.7,3.06.82c1.25.13,2.79.19,4.62.19h7.73c2.06,0,3.76-.04,5.12-.13,1.35-.09,2.42-.35,3.21-.79.79-.43,1.34-1.16,1.68-2.18.33-1.02.5-2.44.5-4.28h3.68c0,2.35-.25,4.23-.75,5.64-.5,1.41-1.3,2.46-2.41,3.17s-2.56,1.18-4.37,1.41c-1.81.23-4.03.34-6.66.34h-7.73c-2.88,0-5.24-.2-7.09-.58-1.85-.39-3.3-1.11-4.34-2.16-1.04-1.05-1.77-2.56-2.18-4.52-.42-1.97-.62-4.53-.62-7.69Z"/><path class="cls-1" d="M715.73,322.08v-29.44h28.91v3.07h-25.23v9.81h24.17v3.07h-24.17v10.43h25.76v3.07h-29.44Z"/></svg>