<?xml version="1.0" encoding="UTF-8" standalone="no"?>
<!--
  Agent Red Customer Experience — Icon Master (The Beacon)
  Design: AR monogram on Agent Red rounded rectangle
  Usage: Source file for all icon/favicon exports
  © 2026 Remaker Digital, a DBA of VanDusen & Palmeter, LLC. All rights reserved.
-->

<svg
   viewBox="0 0 1200 1200"
   width="1200"
   height="1200"
   version="1.1"
   id="svg1"
   xml:space="preserve"
   sodipodi:docname="icon-master.svg"
   inkscape:export-filename="..\PNG\..\png\icon-master.png"
   inkscape:export-xdpi="96"
   inkscape:export-ydpi="96"
   inkscape:version="1.4.2 (f4327f4, 2025-05-13)"
   xmlns:inkscape="http://www.inkscape.org/namespaces/inkscape"
   xmlns:sodipodi="http://sodipodi.sourceforge.net/DTD/sodipodi-0.dtd"
   xmlns="http://www.w3.org/2000/svg"
   xmlns:svg="http://www.w3.org/2000/svg"><sodipodi:namedview
     id="namedview1"
     pagecolor="#ffffff"
     bordercolor="#000000"
     borderopacity="0.25"
     inkscape:showpageshadow="2"
     inkscape:pageopacity="0.0"
     inkscape:pagecheckerboard="0"
     inkscape:deskcolor="#d1d1d1"
     inkscape:zoom="0.076875"
     inkscape:cx="-104.06504"
     inkscape:cy="650.4065"
     inkscape:window-width="3840"
     inkscape:window-height="991"
     inkscape:window-x="-9"
     inkscape:window-y="-9"
     inkscape:window-maximized="1"
     inkscape:current-layer="Layer_1-2" /><defs
     id="defs1"><style
       id="style1">.cls-1{fill:#f8f8fa;}.cls-2{fill:#c41e2a;}</style></defs><!-- Background: Agent Red rounded rectangle --><!-- Corner radius: ~21% of width = 252px --><!-- AR Monogram: Inter Extra Bold 800, white, tight letter-spacing --><!-- Centered vertically, slight left offset for optical balance --><!-- Font metrics: Inter 800 at ~650px size, baseline ~780px from top --><g
     id="Layer_1-2"
     transform="scale(6.6272712,7.62825)"><path
       class="cls-2"
       d="M 106.56516,0.00333053 181.07,0 V 70.289997 C 181.07,118.34999 147.62218,157.31 106.36518,157.31 H 78.384804 Z"
       id="path2"
       style="stroke-width:1.00251"
       sodipodi:nodetypes="ccsscc" /><path
       id="path1"
       class="cls-1"
       d="M 74.578655,0 C 33.391364,0 0,38.962519 0,87.015569 V 157.31 h 78.391359 l 5.294436,-29.55177 h 23.491555 l 7.02337,-38.712659 h 7.38441 c 3.63211,0 5.2075,2.12024 5.2075,5.930482 0,7.630487 -4.60527,21.611467 -3.63202,32.772187 h 23.96969 c -1.32441,-12.01077 3.03025,-25.71183 3.15065,-33.062296 v -0.559992 c 0,-6.080386 -2.17735,-10.460556 -7.38471,-13.140726 8.23746,-3.250205 13.6858,-10.460755 15.50185,-20.77141 0.36121,-2.120135 0.60204,-4.240263 0.60204,-6.360399 0,-13.840878 -8.59884,-25.001688 -25.18413,-25.001688 H 101.40625 L 106.57531,0 Z m 47.006475,48.773037 h 6.17058 c 5.08696,0 7.62541,2.820283 7.62541,8.050615 0,1.130072 -0.12024,2.400004 -0.36104,3.810093 -1.21405,6.500413 -4.59523,9.750818 -9.20058,9.750818 h -8.22745 z"
       style="fill:#e8e8ed;fill-opacity:1;stroke-width:1.0017" /><path
       d="m 51.88,28.85 h 28.96 l 3.02,98.88 H 61.3 l 0.12,-18.08 H 42.84 l -6.52,18.08 H 13.03 Z m -2.53,62.3 h 12.07 l 0.36,-35.17 z"
       id="path4" /><path
       class="cls-2"
       d="m 101.87357,28.84511 h 32.30001 c 16.51071,0 25.0689,11.158702 25.0689,25.010526 0,2.119014 -0.24013,4.238014 -0.60534,6.357015 -1.80783,10.313201 -7.23123,17.515733 -15.4243,20.772527 5.18295,2.682673 7.3559,7.066827 7.3559,13.142013 v 0.563714 c -0.11607,7.348675 -4.46166,21.054355 -3.1347,33.058575 h -23.86661 c -0.96154,-11.1587 3.61567,-25.14623 3.61567,-32.776746 0,-3.810033 -1.56739,-5.929034 -5.18305,-5.929034 h -7.3559 l -6.99079,38.70578 H 83.911529 L 101.87376,28.855584 Z m 20.12627,19.916561 -3.98067,21.618042 h 8.19297 c 4.57741,0 7.95254,-3.246359 9.16373,-9.749514 0.24014,-1.409202 0.36521,-2.682687 0.36521,-3.810047 0,-5.229655 -2.52915,-8.048033 -7.59634,-8.048033 h -6.1448 z"
       id="path3"
       style="fill:#f9f9f9;fill-opacity:1;stroke-width:0.964152" /></g></svg>
