<?xml version="1.0" encoding="UTF-8" standalone="no"?>
<!--
  Agent Red Customer Experience — Primary Logo (Light Background)
  Design: AR icon + "Agent Red" wordmark, horizontal layout
  Usage: Website header, documents, presentations on light backgrounds
  © 2026 Remaker Digital, a DBA of VanDusen & Palmeter, LLC. All rights reserved.
-->

<svg
   viewBox="0 0 410 128"
   width="410"
   height="128"
   version="1.1"
   id="svg3"
   xml:space="preserve"
   xmlns="http://www.w3.org/2000/svg"
   xmlns:svg="http://www.w3.org/2000/svg"><defs
     id="defs3"><style
       id="style1">.cls-1{fill:#fff;}.cls-2{fill:#f8f8fa;}.cls-3{fill:#c41e2a;}</style></defs><!-- Icon: AR rounded rectangle --><!-- Wordmark: "Agent" in White + "Red" in Agent Red --><g
     id="g3"
     transform="matrix(0.58985167,0,0,0.5898793,-30.937721,-63.010907)"><path
       class="cls-2"
       d="M 460.09,257.54 H 52.45 c 0,0 0,-67.34 0,-67.34 0,-46.05 37.33,-83.37 83.37,-83.37 h 355.77 c 0,0 -31.51,150.72 -31.51,150.72 z"
       id="path1" /><path
       class="cls-3"
       d="m 491.46,106.83 h 256.08 v 67.34 c 0,46.05 -37.33,83.37 -83.37,83.37 H 459.95 l 31.51,-150.72 z"
       id="path2" /><path
       class="cls-2"
       d="m 509.77,134.47 h 36.27 c 18.54,0 28.15,10.69 28.15,23.96 0,2.03 -0.27,4.06 -0.68,6.09 -2.03,9.88 -8.12,16.78 -17.32,19.9 5.82,2.57 8.26,6.77 8.26,12.59 v 0.54 c -0.13,7.04 -5.01,20.17 -3.52,31.67 h -26.8 c -1.08,-10.69 4.06,-24.09 4.06,-31.4 0,-3.65 -1.76,-5.68 -5.82,-5.68 h -8.26 l -7.85,37.08 H 489.6 l 20.17,-94.74 z m 22.6,19.08 -4.47,20.71 h 9.2 c 5.14,0 8.93,-3.11 10.29,-9.34 0.27,-1.35 0.41,-2.57 0.41,-3.65 0,-5.01 -2.84,-7.71 -8.53,-7.71 h -6.9 z"
       id="path3" /><path
       class="cls-2"
       d="m 585.97,134.47 h 61.58 l -4.2,20.03 H 608.3 l -3.38,16.51 h 26.39 l -4.33,19.49 h -26.26 l -4.06,19.22 h 34.92 l -4.2,19.49 H 565.8 Z"
       id="path4" /><path
       class="cls-2"
       d="m 653.51,134.47 h 26.93 c 23.69,0 36.14,12.59 36.14,35.05 0,5.01 -0.54,10.42 -1.76,16.24 -6.23,29.91 -20.71,43.45 -44.66,43.45 h -36.81 l 20.17,-94.74 z m 22.2,20.84 -11.23,53.46 h 5.01 c 8.12,0 15.16,-6.5 18.81,-25.58 1.08,-5.55 1.62,-10.15 1.62,-13.94 0,-9.88 -3.79,-13.94 -11.91,-13.94 z"
       id="path5" /><path
       d="m 123.65,134.47 h 32.48 l 3.38,94.74 H 134.2 l 0.14,-17.32 H 113.5 l -7.31,17.32 H 80.07 Z m -2.85,59.68 h 13.53 l 0.41,-33.7 z"
       id="path6" /><path
       d="m 207.56,218.65 c -5.82,7.99 -12.86,12.18 -20.71,12.18 -15.02,0 -23.28,-11.5 -23.28,-31.4 0,-6.09 0.81,-13.13 2.44,-20.71 6.77,-31.4 21.11,-46.02 42.23,-46.02 21.12,0 32.62,12.32 32.62,32.75 0,1.22 0,2.57 -0.14,3.92 h -25.31 c 0.14,-1.22 0.14,-2.44 0.14,-3.65 0,-6.77 -1.76,-12.32 -7.58,-12.32 -6.23,0 -11.1,7.17 -15.43,27.88 -1.49,6.63 -2.17,12.05 -2.17,16.38 0,8.8 2.84,13.13 7.85,13.13 5.41,0 10.56,-5.01 14.21,-17.46 h -11.91 l 3.65,-17.05 h 35.46 L 228.4,229.2 h -22.87 l 2.03,-10.56 z"
       id="path7" /><path
       d="m 255.34,134.47 h 61.58 l -4.2,20.03 h -35.05 l -3.38,16.51 h 26.39 l -4.33,19.49 h -26.26 l -4.06,19.22 h 34.92 l -4.2,19.49 h -61.58 z"
       id="path8" /><path
       d="m 322.88,134.47 h 27.07 l 4.33,26.93 4.47,28.83 5.68,-28.83 5.55,-26.93 h 21.79 l -20.03,94.74 h -27.2 l -4.33,-26.8 -4.33,-28.96 -5.82,28.96 -5.55,26.8 h -21.66 z"
       id="path9" /><path
       d="m 416,154.63 h -23.28 l 4.33,-20.17 H 470 l -4.33,20.17 h -23.01 l -15.84,74.58 h -26.66 z"
       id="path10" /><path
       class="cls-1"
       d="m 54.9,307.74 v -0.77 c 0,-2.61 0.13,-4.8 0.38,-6.57 0.26,-1.77 0.7,-3.21 1.32,-4.32 0.63,-1.11 1.48,-1.96 2.56,-2.55 1.08,-0.59 2.44,-0.99 4.07,-1.2 1.64,-0.21 3.6,-0.32 5.9,-0.32 h 7.73 c 2.63,0 4.85,0.12 6.66,0.37 1.81,0.25 3.27,0.74 4.37,1.48 1.1,0.74 1.91,1.81 2.41,3.24 0.5,1.42 0.75,3.31 0.75,5.66 h -3.68 c 0,-1.85 -0.17,-3.29 -0.5,-4.32 -0.33,-1.03 -0.89,-1.77 -1.68,-2.23 -0.79,-0.46 -1.86,-0.74 -3.21,-0.85 -1.35,-0.11 -3.06,-0.16 -5.12,-0.16 h -7.73 c -1.83,0 -3.37,0.05 -4.62,0.16 -1.25,0.11 -2.27,0.36 -3.06,0.75 -0.79,0.39 -1.39,1.01 -1.8,1.85 -0.42,0.84 -0.7,1.99 -0.85,3.45 -0.15,1.46 -0.23,3.31 -0.23,5.56 v 0.77 c 0,2.17 0.08,3.97 0.23,5.41 0.15,1.43 0.44,2.58 0.85,3.43 0.42,0.86 1.02,1.5 1.8,1.92 0.79,0.42 1.81,0.7 3.06,0.82 1.25,0.13 2.79,0.19 4.62,0.19 h 7.73 c 2.06,0 3.76,-0.04 5.12,-0.13 1.35,-0.09 2.43,-0.35 3.21,-0.79 0.79,-0.43 1.34,-1.16 1.68,-2.18 0.33,-1.02 0.5,-2.44 0.5,-4.28 h 3.68 c 0,2.35 -0.25,4.23 -0.75,5.64 -0.5,1.41 -1.3,2.46 -2.41,3.17 -1.11,0.71 -2.56,1.18 -4.37,1.41 -1.81,0.23 -4.03,0.34 -6.66,0.34 h -7.73 c -2.88,0 -5.24,-0.2 -7.09,-0.58 -1.85,-0.39 -3.3,-1.11 -4.34,-2.16 -1.04,-1.05 -1.77,-2.56 -2.19,-4.52 -0.42,-1.97 -0.62,-4.53 -0.62,-7.69 z"
       id="path11"
       style="fill:#000000;fill-opacity:1" /><path
       class="cls-1"
       d="m 110.42,322.69 c -2.88,0 -5.24,-0.2 -7.09,-0.58 -1.85,-0.38 -3.3,-1.11 -4.34,-2.16 -1.04,-1.05 -1.77,-2.56 -2.19,-4.52 -0.42,-1.97 -0.62,-4.53 -0.62,-7.69 v -15.11 h 3.68 v 15.11 c 0,2.17 0.08,3.97 0.23,5.41 0.15,1.43 0.44,2.58 0.86,3.43 0.42,0.86 1.03,1.5 1.81,1.92 0.79,0.42 1.8,0.7 3.06,0.82 1.25,0.13 2.79,0.19 4.6,0.19 h 6.94 c 1.83,0 3.36,-0.06 4.61,-0.19 1.25,-0.13 2.26,-0.4 3.05,-0.82 0.79,-0.42 1.39,-1.06 1.81,-1.92 0.42,-0.86 0.71,-2 0.86,-3.43 0.15,-1.43 0.23,-3.23 0.23,-5.41 v -15.11 h 3.68 v 15.11 c 0,3.16 -0.21,5.72 -0.62,7.69 -0.42,1.97 -1.14,3.48 -2.19,4.52 -1.04,1.05 -2.49,1.77 -4.34,2.16 -1.85,0.39 -4.22,0.58 -7.09,0.58 z"
       id="path12"
       style="fill:#000000;fill-opacity:1" /><path
       class="cls-1"
       d="m 169.23,313.57 c 0,-1.14 -0.09,-2.03 -0.27,-2.68 -0.18,-0.65 -0.58,-1.13 -1.21,-1.45 -0.63,-0.31 -1.6,-0.52 -2.91,-0.61 -1.32,-0.1 -3.12,-0.16 -5.41,-0.2 l -10.66,-0.15 c -2.63,-0.04 -4.75,-0.2 -6.35,-0.48 -1.6,-0.28 -2.81,-0.72 -3.62,-1.33 -0.82,-0.61 -1.36,-1.42 -1.64,-2.44 -0.28,-1.02 -0.41,-2.3 -0.41,-3.83 0,-1.67 0.19,-3.05 0.57,-4.14 0.38,-1.09 1.06,-1.94 2.05,-2.55 0.99,-0.61 2.39,-1.04 4.21,-1.29 1.81,-0.25 4.16,-0.37 7.04,-0.37 h 8.2 c 2.61,0 4.78,0.08 6.52,0.25 1.74,0.17 3.12,0.55 4.14,1.15 1.02,0.6 1.75,1.53 2.19,2.8 0.44,1.26 0.66,3 0.66,5.21 h -3.68 c 0,-1.71 -0.16,-3.01 -0.49,-3.88 -0.33,-0.88 -0.86,-1.47 -1.61,-1.79 -0.75,-0.32 -1.75,-0.49 -3.02,-0.52 -1.27,-0.03 -2.84,-0.04 -4.72,-0.04 h -8.01 c -2.29,0 -4.12,0.04 -5.49,0.13 -1.37,0.09 -2.41,0.29 -3.12,0.61 -0.7,0.32 -1.17,0.83 -1.41,1.53 -0.24,0.7 -0.35,1.67 -0.35,2.89 0,1.04 0.08,1.87 0.25,2.49 0.17,0.63 0.54,1.1 1.12,1.43 0.58,0.33 1.48,0.55 2.69,0.67 1.21,0.12 2.87,0.19 4.96,0.22 l 11.43,0.15 c 2.68,0.04 4.83,0.2 6.43,0.47 1.6,0.28 2.81,0.72 3.6,1.33 0.8,0.61 1.33,1.44 1.59,2.48 0.26,1.04 0.39,2.35 0.39,3.94 0,1.73 -0.16,3.17 -0.49,4.34 -0.33,1.17 -0.96,2.11 -1.89,2.81 -0.93,0.7 -2.28,1.21 -4.04,1.51 -1.76,0.3 -4.08,0.46 -6.96,0.46 h -8.97 c -2.62,0 -4.82,-0.12 -6.59,-0.34 -1.78,-0.23 -3.19,-0.69 -4.25,-1.39 -1.06,-0.7 -1.81,-1.74 -2.27,-3.12 -0.46,-1.38 -0.69,-3.22 -0.69,-5.52 h 3.68 c 0,1.8 0.15,3.19 0.44,4.18 0.29,0.99 0.81,1.69 1.54,2.12 0.73,0.43 1.76,0.68 3.09,0.77 1.33,0.09 3.01,0.12 5.05,0.12 h 8.78 c 2.29,0 4.1,-0.07 5.42,-0.22 1.32,-0.15 2.31,-0.43 2.95,-0.84 0.64,-0.42 1.05,-1.01 1.24,-1.79 0.19,-0.78 0.28,-1.81 0.28,-3.09 z"
       id="path13"
       style="fill:#000000;fill-opacity:1" /><path
       class="cls-1"
       d="M 191.79,322.08 V 295.7 h -14.72 v -3.07 h 33.12 v 3.07 h -14.72 v 26.38 z"
       id="path14"
       style="fill:#000000;fill-opacity:1" /><path
       class="cls-1"
       d="m 228.7,322.69 c -2.88,0 -5.24,-0.2 -7.09,-0.58 -1.85,-0.39 -3.3,-1.11 -4.34,-2.16 -1.04,-1.05 -1.77,-2.56 -2.19,-4.52 -0.42,-1.97 -0.62,-4.53 -0.62,-7.69 v -0.77 c 0,-2.61 0.13,-4.8 0.38,-6.57 0.26,-1.77 0.7,-3.21 1.32,-4.32 0.63,-1.11 1.48,-1.96 2.56,-2.55 1.08,-0.59 2.44,-0.99 4.07,-1.2 1.64,-0.21 3.6,-0.32 5.9,-0.32 h 7.73 c 2.3,0 4.27,0.11 5.9,0.32 1.64,0.21 2.99,0.61 4.07,1.2 1.08,0.59 1.93,1.44 2.56,2.55 0.63,1.11 1.07,2.55 1.32,4.32 0.26,1.77 0.38,3.96 0.38,6.57 v 0.77 c 0,3.16 -0.21,5.72 -0.62,7.69 -0.42,1.97 -1.14,3.48 -2.19,4.52 -1.05,1.04 -2.49,1.77 -4.34,2.16 -1.85,0.39 -4.22,0.58 -7.09,0.58 h -7.73 z m 0,-3.18 h 7.73 c 1.83,0 3.37,-0.06 4.62,-0.19 1.25,-0.13 2.27,-0.4 3.06,-0.82 0.79,-0.42 1.39,-1.06 1.8,-1.92 0.42,-0.86 0.7,-2 0.85,-3.43 0.15,-1.43 0.23,-3.23 0.23,-5.41 v -0.77 c 0,-2.25 -0.08,-4.1 -0.23,-5.56 -0.15,-1.46 -0.44,-2.61 -0.85,-3.45 -0.42,-0.84 -1.02,-1.46 -1.8,-1.85 -0.79,-0.39 -1.81,-0.64 -3.06,-0.75 -1.25,-0.11 -2.79,-0.16 -4.62,-0.16 h -7.73 c -1.83,0 -3.37,0.05 -4.62,0.16 -1.25,0.11 -2.27,0.36 -3.06,0.75 -0.79,0.39 -1.39,1.01 -1.8,1.85 -0.42,0.84 -0.7,1.99 -0.85,3.45 -0.15,1.46 -0.23,3.31 -0.23,5.56 v 0.77 c 0,2.17 0.08,3.97 0.23,5.41 0.15,1.43 0.44,2.58 0.85,3.43 0.42,0.86 1.02,1.5 1.8,1.92 0.79,0.42 1.81,0.7 3.06,0.82 1.25,0.13 2.79,0.19 4.62,0.19 z"
       id="path15"
       style="fill:#000000;fill-opacity:1" /><path
       class="cls-1"
       d="m 256.87,322.08 v -29.44 h 5.48 l 17.81,24.02 17.54,-24.02 h 5.48 v 29.44 h -3.68 v -26.11 l -17.58,24.17 h -3.34 l -18.04,-24.17 v 26.11 h -3.68 z"
       id="path16"
       style="fill:#000000;fill-opacity:1" /><path
       class="cls-1"
       d="m 310.63,322.08 v -29.44 h 28.91 v 3.07 h -25.23 v 9.81 h 24.17 v 3.07 h -24.17 v 10.43 h 25.76 v 3.07 h -29.44 z"
       id="path17"
       style="fill:#000000;fill-opacity:1" /><path
       class="cls-1"
       d="m 345.05,292.63 h 19.71 c 2.88,0 5.19,0.13 6.95,0.38 1.76,0.26 3.09,0.7 4,1.32 0.91,0.63 1.52,1.48 1.84,2.57 0.32,1.09 0.48,2.46 0.48,4.12 v 0.77 c 0,1.53 -0.18,2.85 -0.55,3.96 -0.36,1.11 -1.06,2 -2.1,2.68 -1.04,0.68 -2.57,1.17 -4.6,1.45 l 6.4,12.19 h -3.68 l -6.27,-11.92 c -0.26,0.01 -0.52,0.02 -0.8,0.02 h -17.7 v 11.9 h -3.68 z m 3.68,14.36 H 365 c 2.19,0 3.91,-0.07 5.17,-0.22 1.26,-0.15 2.19,-0.41 2.78,-0.78 0.59,-0.37 0.97,-0.89 1.14,-1.57 0.17,-0.68 0.25,-1.55 0.25,-2.63 v -0.77 c 0,-1.21 -0.12,-2.17 -0.35,-2.88 -0.23,-0.7 -0.69,-1.22 -1.38,-1.55 -0.69,-0.33 -1.72,-0.55 -3.09,-0.64 -1.37,-0.1 -3.2,-0.14 -5.48,-0.14 h -15.32 v 11.18 z"
       id="path18"
       style="fill:#000000;fill-opacity:1" /><path
       class="cls-1"
       d="m 396.14,322.08 v -29.44 h 28.91 v 3.07 h -25.23 v 9.81 h 24.17 v 3.07 h -24.17 v 10.43 h 25.76 v 3.07 h -29.44 z"
       id="path19"
       style="fill:#000000;fill-opacity:1" /><path
       class="cls-1"
       d="m 428.04,322.08 16.74,-15.53 -15.51,-13.92 h 5.21 l 12.84,11.54 12.44,-11.54 h 5.21 l -14.99,13.92 17.31,15.53 h -5.21 l -14.66,-13.15 -14.17,13.15 z"
       id="path20"
       style="fill:#000000;fill-opacity:1" /><path
       class="cls-1"
       d="m 472.28,322.08 v -29.44 h 19.71 c 2.88,0 5.19,0.14 6.95,0.42 1.76,0.28 3.09,0.75 4,1.41 0.91,0.66 1.52,1.55 1.84,2.66 0.32,1.11 0.48,2.51 0.48,4.17 v 0.77 c 0,1.58 -0.16,2.93 -0.49,4.04 -0.33,1.11 -0.96,2 -1.89,2.67 -0.93,0.68 -2.28,1.17 -4.04,1.49 -1.76,0.31 -4.08,0.47 -6.96,0.47 h -15.91 v 11.35 h -3.68 z m 29.29,-20.78 c 0,-1.21 -0.11,-2.19 -0.34,-2.91 -0.23,-0.72 -0.69,-1.28 -1.38,-1.65 -0.69,-0.37 -1.72,-0.62 -3.09,-0.74 -1.37,-0.12 -3.19,-0.18 -5.48,-0.18 h -15.32 v 11.73 h 15.32 c 2.29,0 4.12,-0.07 5.48,-0.22 1.37,-0.15 2.4,-0.42 3.09,-0.8 0.69,-0.39 1.15,-0.95 1.38,-1.67 0.23,-0.72 0.34,-1.65 0.34,-2.79 z"
       id="path21"
       style="fill:#000000;fill-opacity:1" /><path
       class="cls-1"
       d="m 510.37,322.08 v -29.44 h 28.91 v 3.07 h -25.23 v 9.81 h 24.17 v 3.07 h -24.17 v 10.43 h 25.76 v 3.07 h -29.44 z"
       id="path22"
       style="fill:#000000;fill-opacity:1" /><path
       class="cls-1"
       d="m 544.8,292.63 h 19.71 c 2.88,0 5.19,0.13 6.95,0.38 1.76,0.25 3.09,0.7 4,1.32 0.91,0.62 1.52,1.48 1.84,2.57 0.32,1.09 0.48,2.46 0.48,4.12 v 0.77 c 0,1.53 -0.18,2.85 -0.55,3.96 -0.36,1.11 -1.06,2 -2.1,2.68 -1.04,0.68 -2.57,1.17 -4.6,1.45 l 6.4,12.19 h -3.68 l -6.27,-11.92 c -0.26,0.01 -0.52,0.02 -0.8,0.02 h -17.7 v 11.9 h -3.68 z m 3.68,14.36 h 16.28 c 2.19,0 3.91,-0.07 5.17,-0.22 1.26,-0.15 2.19,-0.41 2.78,-0.78 0.59,-0.37 0.97,-0.89 1.14,-1.57 0.17,-0.68 0.25,-1.55 0.25,-2.63 v -0.77 c 0,-1.21 -0.11,-2.17 -0.34,-2.88 -0.23,-0.7 -0.69,-1.22 -1.38,-1.55 -0.69,-0.33 -1.72,-0.55 -3.09,-0.64 -1.37,-0.09 -3.19,-0.14 -5.48,-0.14 h -15.32 v 11.18 z"
       id="path23"
       style="fill:#000000;fill-opacity:1" /><path
       class="cls-1"
       d="m 584.73,322.08 v -29.44 h 3.68 v 29.44 z"
       id="path24"
       style="fill:#000000;fill-opacity:1" /><path
       class="cls-1"
       d="m 595.77,322.08 v -29.44 h 28.91 v 3.07 h -25.23 v 9.81 h 24.17 v 3.07 h -24.17 v 10.43 h 25.76 v 3.07 h -29.44 z"
       id="path25"
       style="fill:#000000;fill-opacity:1" /><path
       class="cls-1"
       d="m 630.12,322.08 v -29.44 h 3.83 l 29.58,24.9 h 0.04 v -24.9 h 3.68 v 29.44 h -3.83 l -29.58,-25.11 h -0.04 v 25.11 z"
       id="path26"
       style="fill:#000000;fill-opacity:1" /><path
       class="cls-1"
       d="m 673.39,307.74 v -0.77 c 0,-2.61 0.13,-4.8 0.38,-6.57 0.26,-1.77 0.7,-3.21 1.32,-4.32 0.63,-1.11 1.48,-1.96 2.56,-2.55 1.08,-0.59 2.44,-0.99 4.07,-1.2 1.63,-0.21 3.6,-0.32 5.9,-0.32 h 7.73 c 2.63,0 4.85,0.12 6.66,0.37 1.81,0.25 3.27,0.74 4.37,1.48 1.11,0.74 1.91,1.81 2.41,3.24 0.5,1.42 0.75,3.31 0.75,5.66 h -3.68 c 0,-1.85 -0.17,-3.29 -0.5,-4.32 -0.33,-1.03 -0.89,-1.77 -1.68,-2.23 -0.79,-0.46 -1.86,-0.74 -3.21,-0.85 -1.35,-0.11 -3.06,-0.16 -5.12,-0.16 h -7.73 c -1.83,0 -3.37,0.05 -4.62,0.16 -1.25,0.11 -2.27,0.36 -3.06,0.75 -0.79,0.39 -1.39,1.01 -1.8,1.85 -0.42,0.84 -0.7,1.99 -0.85,3.45 -0.15,1.46 -0.23,3.31 -0.23,5.56 v 0.77 c 0,2.17 0.08,3.97 0.23,5.41 0.15,1.43 0.44,2.58 0.85,3.43 0.42,0.86 1.02,1.5 1.8,1.92 0.78,0.42 1.8,0.7 3.06,0.82 1.25,0.13 2.79,0.19 4.62,0.19 h 7.73 c 2.06,0 3.76,-0.04 5.12,-0.13 1.35,-0.09 2.42,-0.35 3.21,-0.79 0.79,-0.43 1.34,-1.16 1.68,-2.18 0.33,-1.02 0.5,-2.44 0.5,-4.28 h 3.68 c 0,2.35 -0.25,4.23 -0.75,5.64 -0.5,1.41 -1.3,2.46 -2.41,3.17 -1.11,0.71 -2.56,1.18 -4.37,1.41 -1.81,0.23 -4.03,0.34 -6.66,0.34 h -7.73 c -2.88,0 -5.24,-0.2 -7.09,-0.58 -1.85,-0.39 -3.3,-1.11 -4.34,-2.16 -1.04,-1.05 -1.77,-2.56 -2.18,-4.52 -0.42,-1.97 -0.62,-4.53 -0.62,-7.69 z"
       id="path27"
       style="fill:#000000;fill-opacity:1" /><path
       class="cls-1"
       d="m 715.73,322.08 v -29.44 h 28.91 v 3.07 h -25.23 v 9.81 h 24.17 v 3.07 h -24.17 v 10.43 h 25.76 v 3.07 h -29.44 z"
       id="path28"
       style="fill:#000000;fill-opacity:1" /></g></svg>
