<?xml version="1.0" encoding="UTF-8" standalone="no"?>
<!--
  Agent Red Customer Experience — Primary Logo (Light Background)
  Design: AR icon + "Agent Red" wordmark, horizontal layout
  Usage: Website header, documents, presentations on light backgrounds
  © 2026 Remaker Digital, a DBA of VanDusen & Palmeter, LLC. All rights reserved.
-->

<svg
   viewBox="0 0 410 128"
   width="410"
   height="128"
   version="1.1"
   id="svg3"
   xml:space="preserve"
   sodipodi:docname="primary-logo-light.svg"
   inkscape:version="1.4.2 (f4327f4, 2025-05-13)"
   inkscape:export-filename="..\PNG\primary-logo-light.png"
   inkscape:export-xdpi="96"
   inkscape:export-ydpi="96"
   xmlns:inkscape="http://www.inkscape.org/namespaces/inkscape"
   xmlns:sodipodi="http://sodipodi.sourceforge.net/DTD/sodipodi-0.dtd"
   xmlns="http://www.w3.org/2000/svg"
   xmlns:svg="http://www.w3.org/2000/svg"><sodipodi:namedview
     id="namedview1"
     pagecolor="#ffffff"
     bordercolor="#000000"
     borderopacity="0.25"
     inkscape:showpageshadow="2"
     inkscape:pageopacity="0.0"
     inkscape:pagecheckerboard="0"
     inkscape:deskcolor="#d1d1d1"
     inkscape:zoom="2.8828125"
     inkscape:cx="113.77778"
     inkscape:cy="35.728997"
     inkscape:window-width="3840"
     inkscape:window-height="991"
     inkscape:window-x="-9"
     inkscape:window-y="-9"
     inkscape:window-maximized="1"
     inkscape:current-layer="svg3" /><defs
     id="defs3"><style
       id="style1">.cls-1{fill:#fff;}.cls-2{fill:#f8f8fa;}.cls-3{fill:#c41e2a;}</style></defs><!-- Icon: AR rounded rectangle --><!-- Wordmark: "Agent" in White + "Red" in Agent Red --><path
     class="cls-1"
     d="m 1.4451357,118.51855 v -0.45421 c 0,-1.53958 0.076681,-2.83142 0.2241436,-3.87551 0.1533615,-1.04408 0.4128962,-1.89351 0.7786042,-2.54827 0.3716066,-0.65477 0.8729805,-1.15617 1.5100203,-1.5042 0.6370398,-0.34802 1.4392381,-0.58398 2.4006963,-0.70785 0.9673567,-0.12388 2.123466,-0.18876 3.4801248,-0.18876 h 4.5595531 c 1.55131,0 2.860781,0.0708 3.928412,0.21825 1.067632,0.14747 1.928815,0.43651 2.577652,0.87302 0.648837,0.43651 1.126617,1.06769 1.421543,1.91121 0.294926,0.83763 0.442389,1.9525 0.442389,3.33872 h -2.170655 c 0,-1.09128 -0.100274,-1.9407 -0.294925,-2.54828 -0.194651,-0.60757 -0.524968,-1.04409 -0.990951,-1.31543 -0.465983,-0.27134 -1.097124,-0.43651 -1.893424,-0.5014 -0.7963,-0.0649 -1.804946,-0.0944 -3.020041,-0.0944 H 9.8387249 c -1.0794285,0 -1.9878001,0.0295 -2.7251147,0.0944 -0.7373146,0.0649 -1.3389633,0.21236 -1.8049461,0.44241 -0.4659828,0.23006 -0.8198938,0.59578 -1.061733,1.09128 -0.2477377,0.4955 -0.4128962,1.17386 -0.5013739,2.03508 -0.088478,0.86123 -0.1356659,1.9525 -0.1356659,3.27973 v 0.45421 c 0,1.28004 0.047188,2.34182 0.1356659,3.19125 0.088478,0.84352 0.2595347,1.52188 0.5013739,2.02328 0.2477377,0.5073 0.6016487,0.88482 1.061733,1.13257 0.4659828,0.24775 1.0676315,0.41292 1.8049461,0.4837 0.7373146,0.0767 1.6456862,0.11208 2.7251147,0.11208 h 4.5595531 c 1.215095,0 2.217843,-0.0236 3.020041,-0.0767 0.7963,-0.0531 1.433339,-0.20645 1.893424,-0.466 0.465983,-0.25365 0.790401,-0.68426 0.990951,-1.28594 0.194651,-0.60167 0.294925,-1.4393 0.294925,-2.52468 h 2.170655 c 0,1.38622 -0.147463,2.49519 -0.442389,3.32692 -0.294926,0.83173 -0.766807,1.4511 -1.421543,1.86992 -0.654735,0.41881 -1.51002,0.69605 -2.577652,0.83173 -1.067631,0.13567 -2.377102,0.20055 -3.928412,0.20055 H 9.8387249 c -1.6987728,0 -3.0908227,-0.11797 -4.1820483,-0.34213 -1.0912256,-0.23005 -1.9465105,-0.65476 -2.5599562,-1.27413 -0.6134458,-0.61938 -1.0440375,-1.5101 -1.2917752,-2.66626 -0.2477377,-1.16206 -0.365708,-2.67215 -0.365708,-4.53617 z"
     id="path11"
     style="fill:#000000;fill-opacity:1;stroke-width:0.589866" /><path
     class="cls-1"
     d="m 34.1937,127.33724 c -1.698772,0 -3.090822,-0.11797 -4.182048,-0.34213 -1.091226,-0.22415 -1.94651,-0.65476 -2.559956,-1.27413 -0.613446,-0.61938 -1.044038,-1.5101 -1.291775,-2.66626 -0.247738,-1.16206 -0.365708,-2.67215 -0.365708,-4.53617 v -8.91308 h 2.170654 v 8.91308 c 0,1.28004 0.04719,2.34182 0.135666,3.19125 0.08848,0.84352 0.259534,1.52188 0.507272,2.02328 0.247738,0.5073 0.607547,0.88482 1.067632,1.13257 0.465982,0.24775 1.061733,0.41292 1.804946,0.4837 0.737314,0.0767 1.645686,0.11208 2.713317,0.11208 h 4.093571 c 1.079429,0 1.981902,-0.0354 2.719216,-0.11208 0.737315,-0.0767 1.333065,-0.23595 1.799048,-0.4837 0.465983,-0.24775 0.819894,-0.62527 1.067631,-1.13257 0.247738,-0.50729 0.418795,-1.17976 0.507273,-2.02328 0.08848,-0.84353 0.135666,-1.90531 0.135666,-3.19125 v -8.91308 h 2.170654 v 8.91308 c 0,1.86402 -0.123869,3.37411 -0.365708,4.53617 -0.247738,1.16206 -0.672431,2.05278 -1.291775,2.66626 -0.613446,0.61937 -1.468731,1.04408 -2.559957,1.27413 -1.091225,0.23006 -2.489174,0.34213 -4.182048,0.34213 z"
     id="path12"
     style="fill:#000000;fill-opacity:1;stroke-width:0.589866" /><path
     class="cls-1"
     d="m 68.882877,121.95755 c 0,-0.67247 -0.05309,-1.19746 -0.15926,-1.58088 -0.106173,-0.38342 -0.342114,-0.66657 -0.71372,-0.85533 -0.371607,-0.18286 -0.943763,-0.30673 -1.716469,-0.35982 -0.778604,-0.059 -1.840337,-0.0944 -3.191097,-0.11798 l -6.287819,-0.0885 c -1.55131,-0.0236 -2.801795,-0.11798 -3.745558,-0.28314 -0.943763,-0.16517 -1.657483,-0.42472 -2.135263,-0.78454 -0.483679,-0.35983 -0.802198,-0.83763 -0.967357,-1.43931 -0.165158,-0.60167 -0.241839,-1.35672 -0.241839,-2.25924 0,-0.98509 0.112072,-1.79913 0.336215,-2.4421 0.224144,-0.64296 0.625243,-1.14436 1.209196,-1.50419 0.583953,-0.35982 1.409746,-0.61347 2.483276,-0.76094 1.067631,-0.14747 2.453783,-0.21826 4.152556,-0.21826 h 4.836783 c 1.539513,0 2.819491,0.0472 3.845833,0.14747 1.026342,0.10028 1.840337,0.32444 2.441986,0.67836 0.601649,0.35393 1.03224,0.90252 1.291775,1.65167 0.259535,0.74324 0.389302,1.76963 0.389302,3.07327 h -2.170654 c 0,-1.0087 -0.09438,-1.77554 -0.289027,-2.28873 -0.194651,-0.5191 -0.507273,-0.86713 -0.949661,-1.05589 -0.442389,-0.18876 -1.032241,-0.28904 -1.781352,-0.30674 -0.749112,-0.0177 -1.675179,-0.0236 -2.7841,-0.0236 h -4.724712 c -1.35076,0 -2.430189,0.0236 -3.238286,0.0767 -0.808097,0.0531 -1.421542,0.17107 -1.840337,0.35983 -0.412896,0.18876 -0.690126,0.4896 -0.831691,0.90251 -0.141564,0.41292 -0.206448,0.9851 -0.206448,1.70476 0,0.61347 0.04719,1.10307 0.147463,1.4688 0.100275,0.37162 0.31852,0.64886 0.660634,0.84352 0.342114,0.19466 0.87298,0.32444 1.586701,0.39522 0.71372,0.0708 1.692874,0.11208 2.925664,0.12978 l 6.742005,0.0885 c 1.580802,0.0236 2.848983,0.11797 3.792746,0.27724 0.943763,0.16517 1.657483,0.42471 2.123466,0.78454 0.471881,0.35983 0.784503,0.84943 0.937864,1.4629 0.153362,0.61348 0.230042,1.38622 0.230042,2.32413 0,1.02049 -0.09438,1.86991 -0.289027,2.56007 -0.194651,0.69016 -0.566258,1.24465 -1.11482,1.65756 -0.548562,0.41292 -1.344862,0.71376 -2.383,0.89072 -1.038139,0.17696 -2.406595,0.27134 -4.105368,0.27134 h -5.29097 c -1.545411,0 -2.843085,-0.0708 -3.887122,-0.20055 -1.049936,-0.13568 -1.881627,-0.40702 -2.50687,-0.81994 -0.625242,-0.41291 -1.067631,-1.02639 -1.338963,-1.84042 -0.271332,-0.81403 -0.406998,-1.89941 -0.406998,-3.25613 h 2.170655 c 0,1.06178 0.08848,1.88171 0.259534,2.46569 0.171057,0.58398 0.47778,0.9969 0.908372,1.25055 0.430592,0.25364 1.038139,0.40111 1.822641,0.4542 0.784503,0.0531 1.775454,0.0708 2.978751,0.0708 h 5.178898 c 1.35076,0 2.418392,-0.0413 3.196996,-0.12978 0.778604,-0.0885 1.362557,-0.25364 1.740063,-0.49549 0.377505,-0.24775 0.619344,-0.59578 0.731416,-1.05589 0.112071,-0.4601 0.165158,-1.06768 0.165158,-1.82272 z"
     id="path13"
     style="fill:#000000;fill-opacity:1;stroke-width:0.589866" /><path
     class="cls-1"
     d="M 82.189931,126.97742 V 111.4164 h -8.682617 v -1.81093 h 19.535888 v 1.81093 h -8.682617 v 15.56102 z"
     id="path14"
     style="fill:#000000;fill-opacity:1;stroke-width:0.589866" /><path
     class="cls-1"
     d="m 103.96136,127.33724 c -1.69878,0 -3.09083,-0.11797 -4.182052,-0.34213 -1.091226,-0.23005 -1.946511,-0.65476 -2.559957,-1.27413 -0.613445,-0.61938 -1.044037,-1.5101 -1.291775,-2.66626 -0.247738,-1.16206 -0.365708,-2.67215 -0.365708,-4.53617 v -0.45421 c 0,-1.53958 0.07668,-2.83142 0.224144,-3.87551 0.153361,-1.04408 0.412896,-1.89351 0.778604,-2.54827 0.371607,-0.65477 0.87298,-1.15617 1.51002,-1.5042 0.63704,-0.34802 1.439238,-0.58398 2.400694,-0.70785 0.96736,-0.12388 2.12347,-0.18876 3.48013,-0.18876 h 4.55955 c 1.35666,0 2.51867,0.0649 3.48013,0.18876 0.96735,0.12387 1.76365,0.35983 2.40069,0.70785 0.63704,0.34803 1.13842,0.84943 1.51002,1.5042 0.37161,0.65476 0.63114,1.50419 0.77861,2.54827 0.15336,1.04409 0.22414,2.33593 0.22414,3.87551 v 0.45421 c 0,1.86402 -0.12387,3.37411 -0.36571,4.53617 -0.24774,1.16206 -0.67243,2.05278 -1.29177,2.66626 -0.61935,0.61347 -1.46873,1.04408 -2.55996,1.27413 -1.09122,0.23006 -2.48917,0.34213 -4.18205,0.34213 h -4.55955 z m 0,-1.87581 h 4.55955 c 1.07943,0 1.9878,-0.0354 2.72511,-0.11208 0.73732,-0.0767 1.33897,-0.23595 1.80495,-0.4837 0.46598,-0.24775 0.81989,-0.62527 1.06173,-1.13257 0.24774,-0.50729 0.4129,-1.17976 0.50138,-2.02328 0.0885,-0.84353 0.13566,-1.90531 0.13566,-3.19125 v -0.45421 c 0,-1.32723 -0.0472,-2.4185 -0.13566,-3.27973 -0.0885,-0.86122 -0.25954,-1.53958 -0.50138,-2.03508 -0.24773,-0.4955 -0.60165,-0.86122 -1.06173,-1.09128 -0.46598,-0.23005 -1.06763,-0.37752 -1.80495,-0.44241 -0.73731,-0.0649 -1.64568,-0.0944 -2.72511,-0.0944 h -4.55955 c -1.07943,0 -1.9878,0.0295 -2.72512,0.0944 -0.73731,0.0649 -1.338962,0.21236 -1.804945,0.44241 -0.465983,0.23006 -0.819894,0.59578 -1.061733,1.09128 -0.247738,0.4955 -0.412896,1.17386 -0.501374,2.03508 -0.08848,0.86123 -0.135666,1.9525 -0.135666,3.27973 v 0.45421 c 0,1.28004 0.04719,2.34182 0.135666,3.19125 0.08848,0.84352 0.259535,1.52188 0.501374,2.02328 0.247738,0.5073 0.601649,0.88482 1.061733,1.13257 0.465983,0.24775 1.067635,0.41292 1.804945,0.4837 0.73732,0.0767 1.64569,0.11208 2.72512,0.11208 z"
     id="path15"
     style="fill:#000000;fill-opacity:1;stroke-width:0.589866" /><path
     class="cls-1"
     d="m 120.57748,126.97742 v -17.36605 h 3.23238 l 10.50526,14.1689 10.346,-14.1689 h 3.23239 v 17.36605 h -2.17066 v -15.40175 l -10.36959,14.25738 h -1.9701 l -10.64093,-14.25738 v 15.40175 h -2.17065 z"
     id="path16"
     style="fill:#000000;fill-opacity:1;stroke-width:0.589866" /><path
     class="cls-1"
     d="m 152.2879,126.97742 v -17.36605 h 17.05262 v 1.81093 h -14.88196 v 5.78672 h 14.25671 v 1.81093 h -14.25671 v 6.15244 h 15.19458 v 1.81093 H 152.2879 Z"
     id="path17"
     style="fill:#000000;fill-opacity:1;stroke-width:0.589866" /><path
     class="cls-1"
     d="m 172.5906,109.60547 h 11.62597 c 1.69878,0 3.06133,0.0767 4.09947,0.22416 1.03814,0.15337 1.82264,0.41291 2.35941,0.77864 0.53676,0.37162 0.89657,0.87302 1.08533,1.51599 0.18875,0.64297 0.28313,1.4511 0.28313,2.4303 v 0.45421 c 0,0.90251 -0.10618,1.68115 -0.32442,2.33592 -0.21235,0.65476 -0.62525,1.17976 -1.23869,1.58088 -0.61345,0.40111 -1.51592,0.69015 -2.71332,0.85532 l 3.77505,7.19063 h -2.17065 l -3.69837,-7.03136 c -0.15336,0.006 -0.30673,0.0118 -0.47188,0.0118 h -10.44038 v 7.01956 h -2.17065 z m 2.17065,8.47067 h 9.59689 c 1.29177,0 2.30632,-0.0413 3.04953,-0.12977 0.74321,-0.0885 1.29178,-0.24185 1.63979,-0.46011 0.34801,-0.21826 0.57216,-0.52499 0.67243,-0.92611 0.10028,-0.40112 0.14746,-0.91431 0.14746,-1.55138 v -0.45421 c 0,-0.71375 -0.0708,-1.28004 -0.20644,-1.69885 -0.13567,-0.41292 -0.407,-0.71966 -0.814,-0.91432 -0.407,-0.19466 -1.01455,-0.32443 -1.82264,-0.37752 -0.8081,-0.059 -1.88753,-0.0826 -3.23239,-0.0826 h -9.03653 v 6.59485 z"
     id="path18"
     style="fill:#000000;fill-opacity:1;stroke-width:0.589866" /><path
     class="cls-1"
     d="m 202.72612,126.97742 v -17.36605 h 17.05261 v 1.81093 h -14.88196 v 5.78672 h 14.25672 v 1.81093 h -14.25672 v 6.15244 h 15.19458 v 1.81093 h -17.36523 z"
     id="path19"
     style="fill:#000000;fill-opacity:1;stroke-width:0.589866" /><path
     class="cls-1"
     d="m 221.54239,126.97742 9.87411,-9.16083 -9.14859,-8.21112 h 3.07312 l 7.5737,6.80721 7.33775,-6.80721 h 3.07313 l -8.84188,8.21112 10.21034,9.16083 h -3.07313 l -8.64723,-7.75691 -8.35819,7.75691 z"
     id="path20"
     style="fill:#000000;fill-opacity:1;stroke-width:0.589866" /><path
     class="cls-1"
     d="m 247.63743,126.97742 v -17.36605 h 11.62597 c 1.69877,0 3.06133,0.0826 4.09947,0.24775 1.03814,0.16517 1.82264,0.44241 2.35941,0.83173 0.53676,0.38932 0.89657,0.91431 1.08532,1.56908 0.18876,0.65477 0.28313,1.4806 0.28313,2.4598 v 0.4542 c 0,0.93201 -0.0944,1.72835 -0.28902,2.38312 -0.19465,0.65476 -0.56626,1.17975 -1.11482,1.57497 -0.54857,0.40112 -1.34486,0.69016 -2.383,0.87892 -1.03814,0.18287 -2.4066,0.27725 -4.10537,0.27725 h -9.38454 v 6.69513 h -2.17066 z m 17.27675,-12.25769 c 0,-0.71376 -0.0649,-1.29184 -0.20055,-1.71655 -0.13566,-0.42472 -0.407,-0.75505 -0.81399,-0.9733 -0.407,-0.21826 -1.01455,-0.36573 -1.82265,-0.43651 -0.80809,-0.0708 -1.88162,-0.10618 -3.23238,-0.10618 h -9.03653 v 6.91928 h 9.03653 c 1.35076,0 2.43019,-0.0413 3.23238,-0.12977 0.8081,-0.0885 1.41565,-0.24775 1.82265,-0.47191 0.40699,-0.23005 0.67833,-0.56038 0.81399,-0.98509 0.13567,-0.42472 0.20055,-0.9733 0.20055,-1.64577 z"
     id="path21"
     style="fill:#000000;fill-opacity:1;stroke-width:0.589866" /><path
     class="cls-1"
     d="m 270.10488,126.97742 v -17.36605 h 17.05261 v 1.81093 h -14.88196 v 5.78672 h 14.25671 v 1.81093 h -14.25671 v 6.15244 h 15.19458 v 1.81093 h -17.36523 z"
     id="path22"
     style="fill:#000000;fill-opacity:1;stroke-width:0.589866" /><path
     class="cls-1"
     d="m 290.41347,109.60547 h 11.62598 c 1.69877,0 3.06133,0.0767 4.09946,0.22416 1.03814,0.14747 1.82265,0.41291 2.35941,0.77864 0.53677,0.36572 0.89658,0.87302 1.08533,1.51599 0.18875,0.64297 0.28313,1.4511 0.28313,2.4303 v 0.45421 c 0,0.90251 -0.10618,1.68115 -0.32442,2.33592 -0.21235,0.65476 -0.62524,1.17976 -1.23869,1.58088 -0.61345,0.40111 -1.51592,0.69015 -2.71332,0.85532 l 3.77505,7.19063 h -2.17065 l -3.69837,-7.03136 c -0.15336,0.006 -0.30672,0.0118 -0.47188,0.0118 h -10.44038 v 7.01956 h -2.17065 z m 2.17065,8.47067 h 9.60279 c 1.29177,0 2.30632,-0.0413 3.04953,-0.12977 0.74321,-0.0885 1.29178,-0.24185 1.63979,-0.46011 0.34801,-0.21826 0.57216,-0.52499 0.67243,-0.92611 0.10027,-0.40112 0.14746,-0.91431 0.14746,-1.55138 v -0.45421 c 0,-0.71375 -0.0649,-1.28004 -0.20055,-1.69885 -0.13566,-0.41292 -0.40699,-0.71966 -0.81399,-0.91432 -0.407,-0.19466 -1.01455,-0.32443 -1.82264,-0.37752 -0.8081,-0.0531 -1.88163,-0.0826 -3.23239,-0.0826 h -9.03653 v 6.59485 z"
     id="path23"
     style="fill:#000000;fill-opacity:1;stroke-width:0.589866" /><path
     class="cls-1"
     d="m 313.96625,126.97742 v -17.36605 h 2.17065 v 17.36605 z"
     id="path24"
     style="fill:#000000;fill-opacity:1;stroke-width:0.589866" /><path
     class="cls-1"
     d="m 320.47821,126.97742 v -17.36605 h 17.05261 v 1.81093 h -14.88196 v 5.78672 h 14.25672 v 1.81093 h -14.25672 v 6.15244 h 15.19458 v 1.81093 h -17.36523 z"
     id="path25"
     style="fill:#000000;fill-opacity:1;stroke-width:0.589866" /><path
     class="cls-1"
     d="m 340.73961,126.97742 v -17.36605 h 2.25914 l 17.44781,14.688 h 0.0236 v -14.688 h 2.17066 v 17.36605 h -2.25914 l -17.44781,-14.81187 h -0.0236 v 14.81187 z"
     id="path26"
     style="fill:#000000;fill-opacity:1;stroke-width:0.589866" /><path
     class="cls-1"
     d="m 366.2625,118.51855 v -0.45421 c 0,-1.53958 0.0767,-2.83142 0.22414,-3.87551 0.15336,-1.04408 0.41289,-1.89351 0.7786,-2.54827 0.37161,-0.65477 0.87298,-1.15617 1.51002,-1.5042 0.63704,-0.34802 1.43924,-0.58398 2.4007,-0.70785 0.96146,-0.12388 2.12347,-0.18876 3.48012,-0.18876 h 4.55956 c 1.55131,0 2.86078,0.0708 3.92841,0.21825 1.06763,0.14747 1.92881,0.43651 2.57765,0.87302 0.65474,0.43651 1.12662,1.06769 1.42154,1.91121 0.29493,0.83763 0.44239,1.9525 0.44239,3.33872 h -2.17065 c 0,-1.09128 -0.10028,-1.9407 -0.29493,-2.54828 -0.19465,-0.60757 -0.52497,-1.04409 -0.99095,-1.31543 -0.46598,-0.27134 -1.09712,-0.43651 -1.89342,-0.5014 -0.7963,-0.0649 -1.80495,-0.0944 -3.02004,-0.0944 h -4.55956 c -1.07942,0 -1.9878,0.0295 -2.72511,0.0944 -0.73731,0.0649 -1.33896,0.21236 -1.80495,0.44241 -0.46598,0.23006 -0.81989,0.59578 -1.06173,1.09128 -0.24774,0.4955 -0.4129,1.17386 -0.50137,2.03508 -0.0885,0.86123 -0.13567,1.9525 -0.13567,3.27973 v 0.45421 c 0,1.28004 0.0472,2.34182 0.13567,3.19125 0.0885,0.84352 0.25953,1.52188 0.50137,2.02328 0.24774,0.5073 0.60165,0.88482 1.06173,1.13257 0.46009,0.24775 1.06174,0.41292 1.80495,0.4837 0.73731,0.0767 1.64569,0.11208 2.72511,0.11208 h 4.55956 c 1.21509,0 2.21784,-0.0236 3.02004,-0.0767 0.7963,-0.0531 1.42744,-0.20645 1.89342,-0.466 0.46598,-0.25365 0.7904,-0.68426 0.99095,-1.28594 0.19465,-0.60167 0.29493,-1.4393 0.29493,-2.52468 h 2.17065 c 0,1.38622 -0.14746,2.49519 -0.44239,3.32692 -0.29492,0.83173 -0.7668,1.4511 -1.42154,1.86992 -0.65473,0.41881 -1.51002,0.69605 -2.57765,0.83173 -1.06763,0.13567 -2.3771,0.20055 -3.92841,0.20055 h -4.55956 c -1.69877,0 -3.09082,-0.11797 -4.18204,-0.34213 -1.09123,-0.23005 -1.94651,-0.65476 -2.55996,-1.27413 -0.61345,-0.61938 -1.04404,-1.5101 -1.28588,-2.66626 -0.24773,-1.16206 -0.3657,-2.67215 -0.3657,-4.53617 z"
     id="path27"
     style="fill:#000000;fill-opacity:1;stroke-width:0.589866" /><path
     class="cls-1"
     d="m 391.23681,126.97742 v -17.36605 h 17.05262 v 1.81093 h -14.88196 v 5.78672 h 14.25671 v 1.81093 h -14.25671 v 6.15244 h 15.19458 v 1.81093 h -17.36524 z"
     id="path28"
     style="fill:#000000;fill-opacity:1;stroke-width:0.589866" /><g
     id="g1"
     transform="matrix(0.58985167,0,0,0.5898793,-30.937721,-63.010907)"><path
       class="cls-2"
       d="M 460.09,257.54 H 52.45 c 0,0 0,-67.34 0,-67.34 0,-46.05 37.33,-83.37 83.37,-83.37 h 355.77 c 0,0 -31.51,150.72 -31.51,150.72 z"
       id="path1"
       style="fill:#e8e8ed;fill-opacity:1" /><path
       class="cls-3"
       d="m 747.54,106.83 v 67.34 c 0,46.05 -37.33,83.37 -83.37,83.37 H 460.08245 l 31.50338,-150.70676 c 85.18014,-0.24509 170.66626,-0.0562 255.95417,-0.003 z"
       id="path2"
       sodipodi:nodetypes="cssccc"
       style="fill:#c41e2a" /><path
       class="cls-2"
       d="m 509.77,134.47 h 36.27 c 18.54,0 28.15,10.69 28.15,23.96 0,2.03 -0.27,4.06 -0.68,6.09 -2.03,9.88 -8.12,16.78 -17.32,19.9 5.82,2.57 8.26,6.77 8.26,12.59 v 0.54 c -0.13,7.04 -5.01,20.17 -3.52,31.67 h -26.8 c -1.08,-10.69 4.06,-24.09 4.06,-31.4 0,-3.65 -1.76,-5.68 -5.82,-5.68 h -8.26 l -7.85,37.08 H 489.6 l 20.17,-94.74 z m 22.6,19.08 -4.47,20.71 h 9.2 c 5.14,0 8.93,-3.11 10.29,-9.34 0.27,-1.35 0.41,-2.57 0.41,-3.65 0,-5.01 -2.84,-7.71 -8.53,-7.71 h -6.9 z"
       id="path3"
       style="fill:#e8e8ed;fill-opacity:1" /><path
       class="cls-2"
       d="m 585.97,134.47 h 61.58 l -4.2,20.03 H 608.3 l -3.38,16.51 h 26.39 l -4.33,19.49 h -26.26 l -4.06,19.22 h 34.92 l -4.2,19.49 H 565.8 Z"
       id="path4"
       style="fill:#e8e8ed;fill-opacity:1" /><path
       class="cls-2"
       d="m 653.51,134.47 h 26.93 c 23.69,0 36.14,12.59 36.14,35.05 0,5.01 -0.54,10.42 -1.76,16.24 -6.23,29.91 -20.71,43.45 -44.66,43.45 h -36.81 l 20.17,-94.74 z m 22.2,20.84 -11.23,53.46 h 5.01 c 8.12,0 15.16,-6.5 18.81,-25.58 1.08,-5.55 1.62,-10.15 1.62,-13.94 0,-9.88 -3.79,-13.94 -11.91,-13.94 z"
       id="path5"
       style="fill:#e8e8ed;fill-opacity:1" /><path
       d="m 123.65,134.47 h 32.48 l 3.38,94.74 H 134.2 l 0.14,-17.32 H 113.5 l -7.31,17.32 H 80.07 Z m -2.85,59.68 h 13.53 l 0.41,-33.7 z"
       id="path6" /><path
       d="m 207.56,218.65 c -5.82,7.99 -12.86,12.18 -20.71,12.18 -15.02,0 -23.28,-11.5 -23.28,-31.4 0,-6.09 0.81,-13.13 2.44,-20.71 6.77,-31.4 21.11,-46.02 42.23,-46.02 21.12,0 32.62,12.32 32.62,32.75 0,1.22 0,2.57 -0.14,3.92 h -25.31 c 0.14,-1.22 0.14,-2.44 0.14,-3.65 0,-6.77 -1.76,-12.32 -7.58,-12.32 -6.23,0 -11.1,7.17 -15.43,27.88 -1.49,6.63 -2.17,12.05 -2.17,16.38 0,8.8 2.84,13.13 7.85,13.13 5.41,0 10.56,-5.01 14.21,-17.46 h -11.91 l 3.65,-17.05 h 35.46 L 228.4,229.2 h -22.87 l 2.03,-10.56 z"
       id="path7" /><path
       d="m 255.34,134.47 h 61.58 l -4.2,20.03 h -35.05 l -3.38,16.51 h 26.39 l -4.33,19.49 h -26.26 l -4.06,19.22 h 34.92 l -4.2,19.49 h -61.58 z"
       id="path8" /><path
       d="m 322.88,134.47 h 27.07 l 4.33,26.93 4.47,28.83 5.68,-28.83 5.55,-26.93 h 21.79 l -20.03,94.74 h -27.2 l -4.33,-26.8 -4.33,-28.96 -5.82,28.96 -5.55,26.8 h -21.66 z"
       id="path9" /><path
       d="m 416,154.63 h -23.28 l 4.33,-20.17 H 470 l -4.33,20.17 h -23.01 l -15.84,74.58 h -26.66 z"
       id="path10" /></g></svg>
