<?xml version="1.0" encoding="UTF-8" standalone="no"?>
<!--
  Agent Red Customer Experience — Primary Logo (Dark Background)
  Design: AR icon + "Agent Red" wordmark, horizontal layout
  Usage: Website header, documents, presentations on dark backgrounds
  © 2026 Remaker Digital, a DBA of VanDusen & Palmeter, LLC. All rights reserved.
-->

<svg
   viewBox="0 0 590 128"
   width="590"
   height="128"
   version="1.1"
   id="svg3"
   xml:space="preserve"
   sodipodi:docname="primary-logo-no-wordmark.svg"
   inkscape:version="1.4.2 (f4327f4, 2025-05-13)"
   inkscape:export-filename="..\PNG\primary-logo-dark-no-wordmark.png"
   inkscape:export-xdpi="96"
   inkscape:export-ydpi="96"
   xmlns:inkscape="http://www.inkscape.org/namespaces/inkscape"
   xmlns:sodipodi="http://sodipodi.sourceforge.net/DTD/sodipodi-0.dtd"
   xmlns="http://www.w3.org/2000/svg"
   xmlns:svg="http://www.w3.org/2000/svg"><sodipodi:namedview
     id="namedview1"
     pagecolor="#ffffff"
     bordercolor="#000000"
     borderopacity="0.25"
     inkscape:showpageshadow="2"
     inkscape:pageopacity="0.0"
     inkscape:pagecheckerboard="0"
     inkscape:deskcolor="#d1d1d1"
     inkscape:zoom="1.4142136"
     inkscape:cx="135.7645"
     inkscape:cy="127.98632"
     inkscape:window-width="3840"
     inkscape:window-height="991"
     inkscape:window-x="-9"
     inkscape:window-y="-9"
     inkscape:window-maximized="1"
     inkscape:current-layer="g3" /><defs
     id="defs3"><style
       id="style1">.cls-1{fill:#fff;}.cls-2{fill:#f8f8fa;}.cls-3{fill:#c41e2a;}</style></defs><!-- Icon: AR rounded rectangle --><!-- Wordmark: "Agent" in White + "Red" in Agent Red --><g
     id="g3"
     transform="matrix(0.58985167,0,0,0.5898793,-30.937721,-63.010907)"><g
       id="g2"
       transform="matrix(1.4390244,0,0,1.438573,-23.026828,-46.690927)"><g
         id="g1"><path
           class="cls-2"
           d="M 460.09,257.54 H 52.45 c 0,0 0,-67.34 0,-67.34 0,-46.05 37.33,-83.37 83.37,-83.37 h 355.77 c 0,0 -31.51,150.72 -31.51,150.72 z"
           id="path1"
           style="fill:#e8e8ed;fill-opacity:1" /><path
           class="cls-3"
           d="m 747.54,106.83 v 67.34 c 0,46.05 -37.33,83.37 -83.37,83.37 H 460.08245 l 31.50338,-150.70676 c 85.18014,-0.24509 170.66626,-0.0562 255.95417,-0.003 z"
           id="path2"
           sodipodi:nodetypes="cssccc" /><path
           class="cls-2"
           d="m 509.77,134.47 h 36.27 c 18.54,0 28.15,10.69 28.15,23.96 0,2.03 -0.27,4.06 -0.68,6.09 -2.03,9.88 -8.12,16.78 -17.32,19.9 5.82,2.57 8.26,6.77 8.26,12.59 v 0.54 c -0.13,7.04 -5.01,20.17 -3.52,31.67 h -26.8 c -1.08,-10.69 4.06,-24.09 4.06,-31.4 0,-3.65 -1.76,-5.68 -5.82,-5.68 h -8.26 l -7.85,37.08 H 489.6 l 20.17,-94.74 z m 22.6,19.08 -4.47,20.71 h 9.2 c 5.14,0 8.93,-3.11 10.29,-9.34 0.27,-1.35 0.41,-2.57 0.41,-3.65 0,-5.01 -2.84,-7.71 -8.53,-7.71 h -6.9 z"
           id="path3"
           style="fill:#f9f9f9;fill-opacity:1" /><path
           class="cls-2"
           d="m 585.97,134.47 h 61.58 l -4.2,20.03 H 608.3 l -3.38,16.51 h 26.39 l -4.33,19.49 h -26.26 l -4.06,19.22 h 34.92 l -4.2,19.49 H 565.8 Z"
           id="path4"
           style="fill:#f9f9f9;fill-opacity:1" /><path
           class="cls-2"
           d="m 653.51,134.47 h 26.93 c 23.69,0 36.14,12.59 36.14,35.05 0,5.01 -0.54,10.42 -1.76,16.24 -6.23,29.91 -20.71,43.45 -44.66,43.45 h -36.81 l 20.17,-94.74 z m 22.2,20.84 -11.23,53.46 h 5.01 c 8.12,0 15.16,-6.5 18.81,-25.58 1.08,-5.55 1.62,-10.15 1.62,-13.94 0,-9.88 -3.79,-13.94 -11.91,-13.94 z"
           id="path5"
           style="fill:#f9f9f9;fill-opacity:1" /><path
           d="m 123.65,134.47 h 32.48 l 3.38,94.74 H 134.2 l 0.14,-17.32 H 113.5 l -7.31,17.32 H 80.07 Z m -2.85,59.68 h 13.53 l 0.41,-33.7 z"
           id="path6" /><path
           d="m 207.56,218.65 c -5.82,7.99 -12.86,12.18 -20.71,12.18 -15.02,0 -23.28,-11.5 -23.28,-31.4 0,-6.09 0.81,-13.13 2.44,-20.71 6.77,-31.4 21.11,-46.02 42.23,-46.02 21.12,0 32.62,12.32 32.62,32.75 0,1.22 0,2.57 -0.14,3.92 h -25.31 c 0.14,-1.22 0.14,-2.44 0.14,-3.65 0,-6.77 -1.76,-12.32 -7.58,-12.32 -6.23,0 -11.1,7.17 -15.43,27.88 -1.49,6.63 -2.17,12.05 -2.17,16.38 0,8.8 2.84,13.13 7.85,13.13 5.41,0 10.56,-5.01 14.21,-17.46 h -11.91 l 3.65,-17.05 h 35.46 L 228.4,229.2 h -22.87 l 2.03,-10.56 z"
           id="path7" /><path
           d="m 255.34,134.47 h 61.58 l -4.2,20.03 h -35.05 l -3.38,16.51 h 26.39 l -4.33,19.49 h -26.26 l -4.06,19.22 h 34.92 l -4.2,19.49 h -61.58 z"
           id="path8" /><path
           d="m 322.88,134.47 h 27.07 l 4.33,26.93 4.47,28.83 5.68,-28.83 5.55,-26.93 h 21.79 l -20.03,94.74 h -27.2 l -4.33,-26.8 -4.33,-28.96 -5.82,28.96 -5.55,26.8 h -21.66 z"
           id="path9" /><path
           d="m 416,154.63 h -23.28 l 4.33,-20.17 H 470 l -4.33,20.17 h -23.01 l -15.84,74.58 h -26.66 z"
           id="path10" /></g></g></g></svg>
