<?xml version="1.0" encoding="UTF-8" standalone="no"?>
<svg
   id="Layer_1"
   data-name="Layer 1"
   viewBox="0 0 2544.12 517.52"
   version="1.1"
   xmlns="http://www.w3.org/2000/svg"
   xmlns:svg="http://www.w3.org/2000/svg">
  <defs
     id="defs1">
    <style
       id="style1">
      .cls-1 {
        fill: #fff;
      }

      .cls-2 {
        fill: none;
      }

      .cls-3 {
        fill: #ff3621;
      }
    </style>
  </defs>
  <g
     id="g5">
    <rect
       class="cls-2"
       width="519.31"
       height="517.52"
       id="rect1" />
    <rect
       class="cls-3"
       x="4.62"
       y="5.95"
       width="510.59"
       height="506.81"
       id="rect2" />
    <g
       id="g4">
      <path
         class="cls-1"
         d="M99.51,362.1v-65.1c0-15.62-15.95-20.18-29.95-21.16v-34.18c14-.33,29.95-4.88,29.95-18.88v-67.05c0-26.69,23.76-46.22,48.17-46.22h27.99v40.36h-14.97c-13.34,0-16.6,7.49-16.6,18.88v56.63c0,23.43-18.55,31.25-33.2,33.2v.65c11.39,1.95,32.87,7.81,33.2,34.83v55.01c0,11.39,3.25,18.88,16.6,18.88h14.97v40.03h-27.99c-24.41,0-48.17-19.2-48.17-45.89Z"
         id="path2" />
      <path
         class="cls-1"
         d="M205.87,181.79h48.04v29.29h.73c9.1-21.48,30.57-33.85,54.58-33.85,6.55,0,9.82.98,11.28,1.3v49.15c-4.73-1.63-10.55-2.28-16.38-2.28-29.84,0-47.31,19.2-47.31,45.57v82.35h-50.95v-171.53Z"
         id="path3" />
      <path
         class="cls-1"
         d="M343.64,367.96h14.65c13.67,0,16.93-7.49,16.93-18.88v-55.01c0-27.02,21.48-32.87,32.87-34.83v-.65c-14.32-1.95-32.87-9.76-32.87-33.2v-56.63c0-11.39-3.26-18.88-16.93-18.88h-14.65v-40.36h27.99c24.41,0,48.17,19.53,48.17,46.22v67.05c0,14,15.95,18.55,29.95,18.88v34.18c-14.32.98-29.95,5.53-29.95,21.16v65.1c0,26.69-23.76,45.89-48.17,45.89h-27.99v-40.03Z"
         id="path4" />
    </g>
  </g>
  <g
     id="g19">
    <path
       class="cls-1"
       d="M669.2,198.4h31.81v21.69h.48c6.02-15.9,20.24-25.06,36.14-25.06,4.34,0,6.51.73,7.47.97v36.39c-3.13-1.21-6.99-1.69-10.85-1.69-19.76,0-31.32,14.22-31.32,33.73v60.97h-33.74v-126.99Z"
       id="path5"
       style="fill:#000000" />
    <path
       class="cls-1"
       d="M755.24,262.01c0-38.55,27.95-66.99,66.03-66.99,34.22,0,65.78,22.65,65.78,75.42v1.68h-96.87c3.62,19.52,16.15,27.71,31.81,27.71,11.56,0,22.65-4.58,29.64-13.97l25.3,17.11c-10.84,13.25-26.99,25.78-54.94,25.78-38.31,0-66.75-28.19-66.75-66.75ZM850.66,249.24c-2.41-15.9-13.25-26.02-29.64-26.02-14.22,0-27.47,7.95-30.84,26.02h60.49Z"
       id="path6"
       style="fill:#000000" />
    <path
       class="cls-1"
       d="M910.19,198.4h32.05v16.63h.48c7.23-10.6,18.07-19.76,38.08-19.76s32.77,8.92,39.76,22.65c7.71-11.32,20.24-22.65,42.65-22.65,31.08,0,46.75,20.97,46.75,53.01v77.11h-33.74v-67.47c0-18.07-5.54-31.57-23.13-31.57s-26.02,13.02-26.02,31.33v67.71h-33.49v-67.71c0-18.07-5.54-31.33-23.62-31.33s-26.02,13.02-26.02,31.57v67.47h-33.74v-126.99Z"
       id="path7"
       style="fill:#000000" />
    <path
       class="cls-1"
       d="M1131.43,261.77c0-38.07,26.51-66.75,61.93-66.75,18.79,0,33.25,8.44,40.48,19.04h.24v-15.66h33.74v126.99h-31.81v-17.35h-.48c-6.75,11.33-23.13,20.72-42.65,20.72-34.21,0-61.44-28.19-61.44-66.99ZM1200.58,298.88c20.24,0,34.22-16.39,34.22-36.87s-13.98-36.87-34.22-36.87-34.22,15.9-34.22,36.87,13.98,36.87,34.22,36.87Z"
       id="path8"
       style="fill:#000000" />
    <path
       class="cls-1"
       d="M1300.12,144.66h33.49v103.61l46.5-49.4h40.73l-52.77,54.22,54.46,72.29h-40.73l-35.9-49.4-12.29,12.77v36.63h-33.49v-180.72Z"
       id="path9"
       style="fill:#000000" />
    <path
       class="cls-1"
       d="M1424.95,262.01c0-38.55,27.95-66.99,66.03-66.99,34.22,0,65.78,22.65,65.78,75.42v1.68h-96.87c3.62,19.52,16.15,27.71,31.81,27.71,11.56,0,22.65-4.58,29.64-13.97l25.3,17.11c-10.84,13.25-26.99,25.78-54.94,25.78-38.31,0-66.75-28.19-66.75-66.75ZM1520.38,249.24c-2.41-15.9-13.25-26.02-29.64-26.02-14.22,0-27.47,7.95-30.84,26.02h60.49Z"
       id="path10"
       style="fill:#000000" />
    <path
       class="cls-1"
       d="M1579.91,198.4h31.81v21.69h.48c6.02-15.9,20.24-25.06,36.14-25.06,4.34,0,6.51.73,7.47.97v36.39c-3.13-1.21-6.99-1.69-10.85-1.69-19.76,0-31.32,14.22-31.32,33.73v60.97h-33.74v-126.99Z"
       id="path11"
       style="fill:#000000" />
    <path
       class="cls-1"
       d="M1667.15,341.29h109.16v19.76h-109.16v-19.76Z"
       id="path12"
       style="fill:#000000" />
    <path
       class="cls-1"
       d="M1791.75,261.77c0-38.07,26.51-66.75,61.93-66.75,18.79,0,33.25,8.44,40.48,19.04h.24v-69.4h33.74v180.72h-31.81v-17.35h-.48c-6.75,11.33-23.13,20.72-42.65,20.72-34.21,0-61.44-28.19-61.44-66.99ZM1860.9,298.88c20.24,0,34.22-16.39,34.22-36.87s-13.98-36.87-34.22-36.87-34.22,15.9-34.22,36.87,13.98,36.87,34.22,36.87Z"
       id="path13"
       style="fill:#000000" />
    <path
       class="cls-1"
       d="M1979,144.42c11.56,0,20.48,9.15,20.48,20.24s-8.91,20.24-20.48,20.24-20-8.67-20-20.24,8.91-20.24,20-20.24ZM1962.13,198.4h33.73v126.99h-33.73v-126.99Z"
       id="path14"
       style="fill:#000000" />
    <path
       class="cls-1"
       d="M2037.55,355.75l14.46-20.72c7.71,8.19,20.49,13.49,36.39,13.49,18.79,0,36.86-8.43,36.86-31.08v-9.4h-.48c-6.75,11.33-23.13,20.72-42.65,20.72-34.22,0-61.45-28.19-61.45-66.99s26.51-66.75,61.93-66.75c18.79,0,33.25,8.44,40.48,19.04h.24v-15.66h33.74v114.7c0,37.59-22.17,60-66.03,60-24.1,0-43.61-6.75-53.5-17.35ZM2089.84,298.88c20.24,0,34.22-16.39,34.22-36.87s-13.98-36.87-34.22-36.87-34.22,15.9-34.22,36.87,13.98,36.87,34.22,36.87Z"
       id="path15"
       style="fill:#000000" />
    <path
       class="cls-1"
       d="M2205.77,144.42c11.56,0,20.49,9.15,20.49,20.24s-8.92,20.24-20.49,20.24-20-8.67-20-20.24,8.91-20.24,20-20.24ZM2188.9,198.4h33.73v126.99h-33.73v-126.99Z"
       id="path16"
       style="fill:#000000" />
    <path
       class="cls-1"
       d="M2264.33,295.51v-68.67h-20.24v-28.43h20.24v-36.87h33.73v36.87h27.96v28.43h-27.96v63.13c0,7.95,5.54,9.88,13.02,9.88,5.78,0,11.56-1.2,15.9-2.17v27.71c-5.54,1.2-16.38,2.41-24.58,2.41-20.24,0-38.07-7.23-38.07-32.29Z"
       id="path17"
       style="fill:#000000" />
    <path
       class="cls-1"
       d="M2341.93,261.77c0-38.07,26.51-66.75,61.93-66.75,18.79,0,33.25,8.44,40.48,19.04h.24v-15.66h33.74v126.99h-31.81v-17.35h-.48c-6.75,11.33-23.13,20.72-42.65,20.72-34.21,0-61.44-28.19-61.44-66.99ZM2411.08,298.88c20.24,0,34.22-16.39,34.22-36.87s-13.98-36.87-34.22-36.87-34.22,15.9-34.22,36.87,13.98,36.87,34.22,36.87Z"
       id="path18"
       style="fill:#000000" />
    <path
       class="cls-1"
       d="M2510.62,144.66h33.49v180.72h-33.49v-180.72Z"
       id="path19"
       style="fill:#000000" />
  </g>
</svg>
