<?xml version="1.0" encoding="UTF-8"?><svg id="Layer_2" xmlns="http://www.w3.org/2000/svg" viewBox="0 0 400 300"><defs><style>.cls-1{fill:#e37300;}.cls-2{fill:none;}.cls-3{fill:#f8ab00;}</style></defs><g id="Layer_51"><g id="BACKSQUARE"><rect class="cls-2" width="400" height="300"/></g><g id="Google_Analytics"><path id="path1196" d="M171.17,159.77l6.63,18.2h-13.42l6.58-18.2h.21,0ZM162.63,182.8h16.98l3.87,10.93h5.73l-15.18-40.33h-5.89l-15.18,40.33h5.73l3.93-10.93h.01Z"/><path id="path1199" d="M191.82,166.14h4.99v3.82h.21c.77-1.34,1.98-2.45,3.61-3.34,1.66-.92,3.36-1.38,5.09-1.38,3.4,0,6,.98,7.8,2.92,1.83,1.91,2.76,4.66,2.76,8.22v17.35h-5.2v-16.98c-.11-4.52-2.37-6.79-6.79-6.79-2.06,0-3.79.85-5.2,2.55-1.38,1.67-2.07,3.65-2.07,5.94v15.28h-5.2v-27.59h0Z"/><path id="path1202" d="M227.95,181.53c1.41-1.02,3.16-1.54,5.25-1.54,2.89,0,5.16.64,6.79,1.91,0,2.2-.88,4.11-2.6,5.73-1.7,1.59-3.63,2.39-5.78,2.39-1.57,0-2.91-.44-4.03-1.33-1.14-.92-1.7-2.04-1.7-3.4,0-1.51.69-2.77,2.07-3.77h0ZM221.42,170.65l4.56,2.87c1.66-2.44,3.94-3.66,6.84-3.66,1.91,0,3.57.64,4.99,1.91,1.45,1.25,2.18,2.76,2.18,4.56v1.17c-1.99-1.09-4.51-1.64-7.59-1.64-3.61,0-6.5.85-8.65,2.55-2.16,1.67-3.24,3.93-3.24,6.79,0,2.69,1.01,4.93,3.02,6.74,2.04,1.8,4.59,2.71,7.64,2.71,3.57,0,6.43-1.57,8.6-4.72h.21v3.82h4.93v-16.98c0-3.57-1.11-6.38-3.34-8.44-2.2-2.04-5.2-3.08-9.02-3.08-4.92,0-8.64,1.8-11.14,5.41h0Z"/><path id="path1205" d="M255.78,153.41v40.33h-5.2v-40.33h5.2Z"/><path id="path1208" d="M286.34,166.14l-17.3,39.74h-5.31l6.42-13.9-11.41-25.84h5.62l8.22,19.84h.11l8.01-19.84h5.64Z"/><path id="path1211" d="M300.59,194.16c-2.23,0-4.09-.69-5.57-2.07s-2.26-3.3-2.28-5.78v-15.44h-4.88v-4.72h4.88v-8.44h5.15v8.44h6.79v4.72h-6.79v13.74c0,1.84.34,3.1,1.06,3.77.74.64,1.55.96,2.44.96.42,0,.82-.03,1.22-.11.38-.11.76-.23,1.11-.37l1.59,4.62c-1.35.45-2.92.69-4.72.69h0Z"/><path id="path1214" d="M314.9,154.04c-.72-.7-1.57-1.06-2.55-1.06-1.03,0-1.9.36-2.6,1.06-.72.72-1.06,1.58-1.06,2.6s.34,1.86,1.06,2.6c.7.72,1.57,1.06,2.6,1.06s1.83-.34,2.55-1.06c.74-.74,1.11-1.61,1.11-2.6s-.37-1.88-1.11-2.6ZM309.75,166.14v27.59h5.2v-27.59h-5.2Z"/><path id="path1217" d="M332.42,194.63c-4.11,0-7.51-1.39-10.19-4.19-2.65-2.83-3.98-6.33-3.98-10.51s1.33-7.75,3.98-10.51c2.68-2.79,6.08-4.19,10.19-4.19,2.83,0,5.28.72,7.38,2.12,2.08,1.42,3.66,3.37,4.72,5.84l-4.72,1.96c-1.46-3.46-4.02-5.2-7.69-5.2-2.37,0-4.43.96-6.15,2.87-1.7,1.91-2.55,4.28-2.55,7.11s.85,5.2,2.55,7.11c1.72,1.91,3.78,2.87,6.15,2.87,3.78,0,6.43-1.72,7.96-5.2l4.62,1.96c-.99,2.48-2.57,4.43-4.72,5.84-2.16,1.41-4.67,2.12-7.53,2.12h-.02Z"/><path id="path1220" d="M370.3,186.09c0,2.41-1.06,4.44-3.18,6.1-2.1,1.62-4.72,2.44-7.91,2.44-2.76,0-5.2-.73-7.32-2.18-2.1-1.45-3.59-3.36-4.51-5.73l4.62-1.96c.7,1.67,1.7,2.96,2.97,3.87,1.3.93,2.72,1.38,4.24,1.38,1.66,0,3.04-.34,4.14-1.06,1.13-.7,1.7-1.55,1.7-2.55,0-1.76-1.37-3.05-4.09-3.87l-4.72-1.17c-5.39-1.38-8.07-3.98-8.07-7.8,0-2.51,1.02-4.52,3.08-6.05,2.04-1.51,4.67-2.28,7.85-2.28,2.44,0,4.64.58,6.63,1.75,1.98,1.17,3.36,2.73,4.14,4.67l-4.62,1.91c-.53-1.17-1.41-2.07-2.6-2.71-1.17-.66-2.48-1.01-3.93-1.01-1.35,0-2.57.34-3.66,1.01-1.06.68-1.59,1.51-1.59,2.49,0,1.57,1.49,2.69,4.46,3.4l4.14,1.06c5.48,1.35,8.22,4.11,8.22,8.28h0Z"/><g id="g6562"><path id="path6536" d="M231.17,121.29c0,8.6-6.73,14.94-14.99,14.94s-14.99-6.34-14.99-14.94,6.73-14.94,14.99-14.94,14.99,6.28,14.99,14.94ZM224.61,121.29c0-5.38-3.9-9.06-8.43-9.06s-8.43,3.68-8.43,9.06,3.9,9.06,8.43,9.06,8.43-3.74,8.43-9.06h0Z"/><path id="path6538" d="M263.51,121.29c0,8.6-6.73,14.94-14.99,14.94s-14.99-6.34-14.99-14.94,6.73-14.94,14.99-14.94,14.99,6.28,14.99,14.94ZM256.95,121.29c0-5.38-3.9-9.06-8.43-9.06s-8.43,3.68-8.43,9.06,3.9,9.06,8.43,9.06,8.43-3.74,8.43-9.06Z"/><path id="path6540" d="M294.5,107.24v26.83c0,11.04-6.51,15.54-14.2,15.54-7.24,0-11.6-4.84-13.25-8.81l5.71-2.38c1.02,2.43,3.51,5.3,7.53,5.3,4.93,0,7.98-3.04,7.98-8.76v-2.15h-.23c-1.47,1.81-4.3,3.4-7.87,3.4-7.47,0-14.32-6.51-14.32-14.88s6.85-15,14.32-15c3.56,0,6.39,1.58,7.87,3.34h.23v-2.43s6.23,0,6.23,0ZM288.73,121.34c0-5.26-3.51-9.11-7.98-9.11s-8.32,3.85-8.32,9.11,3.79,9,8.32,9,7.98-3.79,7.98-9Z"/><path id="path6542" d="M304.78,91.52v43.79h-6.4v-43.79h6.4Z"/><path id="path6544" d="M329.72,126.2l5.09,3.4c-1.64,2.43-5.61,6.62-12.45,6.62-8.49,0-14.83-6.56-14.83-14.94,0-8.89,6.39-14.94,14.1-14.94s11.55,6.17,12.79,9.51l.68,1.7-19.98,8.27c1.53,3,3.91,4.53,7.24,4.53s5.66-1.64,7.36-4.14h0ZM314.04,120.83l13.35-5.55c-.73-1.87-2.94-3.17-5.55-3.17-3.34,0-7.98,2.94-7.81,8.71h0Z"/><path id="path6546" d="M176.96,117.4v-6.34h21.36c.21,1.1.32,2.41.32,3.83,0,4.76-1.3,10.64-5.49,14.83-4.08,4.24-9.28,6.51-16.18,6.51-12.79,0-23.54-10.42-23.54-23.2s10.75-23.2,23.54-23.2c7.07,0,12.11,2.78,15.9,6.39l-4.47,4.47c-2.72-2.55-6.39-4.53-11.43-4.53-9.34,0-16.64,7.53-16.64,16.86s7.3,16.86,16.64,16.86c6.06,0,9.51-2.43,11.72-4.64,1.79-1.79,2.97-4.35,3.44-7.85h-15.17Z"/></g><g id="g6628"><path id="path3806" class="cls-3" d="M103.97,103.31v85.47c0,9.57,6.6,14.89,13.6,14.89,6.47,0,13.6-4.53,13.6-14.89v-84.82c0-8.76-6.47-14.24-13.6-14.24s-13.6,6.05-13.6,13.6h0Z"/><path id="path3808" class="cls-1" d="M68.35,146.69v42.09c0,9.57,6.6,14.89,13.6,14.89,6.47,0,13.6-4.53,13.6-14.89v-41.44c0-8.76-6.47-14.24-13.6-14.24s-13.6,6.05-13.6,13.6h0Z"/><path id="path3810" class="cls-1" d="M59.94,190.07c0,7.51-6.09,13.6-13.6,13.6s-13.6-6.09-13.6-13.6,6.09-13.6,13.6-13.6,13.6,6.09,13.6,13.6"/></g></g></g></svg>