<?xml version="1.0" encoding="UTF-8"?><svg id="Layer_2" xmlns="http://www.w3.org/2000/svg" viewBox="0 0 400 300"><defs><style>.cls-1{fill:#fff;fill-rule:evenodd;}.cls-2{fill:none;}</style></defs><g id="Layer_51"><rect class="cls-2" width="400" height="300"/><path id="Fill-2" class="cls-1" d="M342.69,160.56l-.05-.09-.1-.32.05-.1c3.15-6.49,6.76-10.22,9.91-10.22h.03c3.55.03,6,3.22,5.97,7.76-.02,3.03-1.36,4.78-2.48,5.71-1.27,1.06-2.97,1.67-4.65,1.67-4.15-.03-7-2.42-8.67-4.42h0ZM341.83,185.08c-.51.67-1.21,1.02-2.1,1.02-1.02,0-1.78-.36-2.3-1.06-1.45-1.94-1.04-6.51,1.33-14.8.28-.99.59-1.98.92-2.96l.28-.83.24.84c2.76,9.57,3.31,15.55,1.63,17.79h0ZM240.23,141c.09-2.07.27-4.08.51-5.98,1.6-12.26,4.94-20.82,8.13-20.82h0c1.52.01,2.28,1.16,2.26,3.41-.04,5.54-3.55,13.46-10.42,23.56l-.54.79.04-.96h.01ZM351.72,168.96h.11c6.69,0,11.4-4.63,11.45-11.27.02-3.28-.92-6.29-2.67-8.46-1.85-2.3-4.44-3.53-7.48-3.55h-.06c-4.11,0-7.93,3.12-11.68,9.54l-.3.51-.19-.56c-.95-2.75-1.79-5.05-2.29-6.42-.35-.96-.51-1.39-.55-1.53-.18-.7-.77-1.13-1.55-1.13-.48,0-.99.16-1.47.47-.48.3-.74.68-.84,1.17l-.02.07c-3.75,11.69-6.84,17.37-9.46,17.37-.38,0-.68-.13-.9-.37-.68-.76-.52-2.56-.29-5.06.17-1.83.37-3.91.29-6.11-.15-4.23-2.47-6.78-6.2-6.81-4.73,0-7.8,5.04-9.21,8.04l-.42.9-.09-.99c-.35-3.72-1.6-8.16-5.54-8.19-4.6,0-8.1,5.39-10.23,9.92l-.57,1.21.06-1.34c.26-6.04.47-9.6.62-10.59.16-.99.07-1.66-.25-2.04-.31-.36-.89-.49-1.74-.44-1.47.09-2.22.99-3.35,3.99-1.86,4.93-6.59,16.4-10.37,16.4-.75,0-1.34-.26-1.78-.76-1.59-1.82-.95-6.73-.07-13.53l.07-.51c.41-3.22-.29-3.9-2.04-4.23-.19-.03-.37-.05-.53-.05-1.4,0-2.05,1.34-3.35,5.05-2.32,6.61-5.3,13.56-8.79,13.56-.13,0-.25,0-.38-.03-1.85-.31-1.81-3.06-1.76-6.53.03-1.88.06-4.01-.23-5.93-.52-3.45-2.55-5.61-5.31-5.63-5.49,0-9.2,7.04-10.92,11.23l-.39.95-.13-1.02c-.23-1.82-.54-4.7-.67-8.11v-.1l.06-.08c10.28-12.94,14.89-22.28,14.96-30.28.04-5.11-2.32-8.18-6.31-8.21-2.92,0-9.85,2.43-12.26,24.94-.45,4.17-.69,8.45-.73,12.72v.08l-.05.07c-4.7,6.81-14.74,18.52-24.57,18.52-8.88,0-15.97-7.18-15.97-19.87,0-17,12.04-27.44,21.09-27.44h.07c1.97.02,3.66.57,4.88,1.59,1.27,1.06,1.94,2.56,1.92,4.31-.02,2.35-.78,3.55-1.52,4.72-.19.3-.38.6-.55.91-.17.32-.33.78-.1,1.18.24.41.85.66,1.59.67,2.16,0,5.42-3.12,5.45-7.82.04-4.92-4.11-9.99-11.5-9.99-11.19,0-26.26,12.3-26.26,32.22,0,14.1,8.84,23.84,20.81,23.84,8.5,0,16.9-6.08,24.34-16.24l.46-.62.03.77c.16,3.72.43,6.65.63,8.79.13,1.38.22,2.37.22,2.92,0,1.2.19,2.03.6,2.55.41.51,1.07.76,2.07.76,1.67,0,2.01-1.14,2.67-3.95l.19-.8c.82-3.41,3.86-14.53,8.43-14.53.75,0,1.32.23,1.73.66,1.01,1.07.9,3.27.77,5.81-.08,1.59-.16,3.23,0,4.83.43,4.31,2.29,6.42,5.69,6.45,3.49,0,7.14-3.76,9.06-7.26l.36-.66.14.74c.36,1.87,1.94,8.01,6.91,8.01,4.5,0,8.37-4.74,12.6-14.5l.55-1.28-.03,1.39c-.09,3.7-.29,8.22-.29,11.71,0,2.7.27,3.73,1.52,3.73.09,0,.18,0,.28,0,1.2,0,2.01-.72,2.42-2.13,3.19-11.11,5.94-16.28,8.67-16.28,2.67.02,2.92,4.91,3.14,13.54v.6c.08,3.02.19,4.36,2.06,4.37,1.42,0,1.78-1.12,2.51-3.87.14-.53.29-1.1.47-1.72,2.57-8.93,4.71-12.57,7.36-12.57,2.27.02,2.4,2.36,2.44,3.13.09,1.65-.08,3.38-.25,5.04-.15,1.55-.31,3.15-.25,4.64.14,3.49,2.05,5.43,5.38,5.45,4.33,0,8.23-5.06,11.65-15.03l.24-.69.27.68c.62,1.57,1.43,3.69,2.18,6.22l.03.1-.04.09c-3.31,7.35-5.65,15.54-5.68,19.92-.04,5.76,2.57,9.51,6.64,9.54h.07c2.22,0,7.39-.89,7.49-9.14.04-3.38-.76-8.16-2.37-14.21l-.19-.69.6.4c2.06,1.37,4.38,2.1,6.72,2.12h0l-.03.03Z"/><path id="Fill-5" class="cls-1" d="M133.86,152.04c-1.46,5.86-4.25,12.93-9.28,13.34-.14,0-.28.02-.41.02-2.09,0-3.26-1.37-3.48-4.06-.28-3.37,1.18-7.33,3.71-10.07,1.61-1.75,3.42-2.71,5.11-2.71h.03c2.13.02,3.62,1.73,4.31,3.32l.04.08-.02.09h0ZM180.02,119.27h.07c.48,0,.89.24,1.24.71,1.65,2.23,1.68,10.39-1.16,19.66-1.62,5.3-3.81,10.31-6.31,14.48l-.4.66-.1-.77c-.3-2.24-.44-4.58-.54-6.57-.73-14.02,3.52-27.99,7.21-28.18h-.01ZM141.68,167.89c4.86-.39,8.72-7.01,10.16-9.83l.37-.73.14.81c.69,3.98,2.85,10.66,9.62,10.71h.06c2.93,0,6.25-1.79,9.6-5.17l.25-.25.18.3c2.26,3.78,5.29,5.78,8.51,5.62,4.75-.25,7.63-3.61,7.89-5.95.07-.6-.09-1.16-.43-1.54-.43-.48-1.05-.53-1.5-.1l-.22.21c-1.11,1.06-3.17,3.04-5.41,3.16-2.75.14-4.78-1.51-6.09-4.9l-.05-.14.09-.12c7.56-9.88,12.86-24.97,12.34-35.08-.24-4.68-1.6-10.26-6.72-10.26-.13,0-.25,0-.38.01-1.96.1-3.74,1.03-5.29,2.77-4.74,5.31-7.23,18.37-6.33,33.28.19,3.1.73,5.99,1.6,8.6l.05.15-.1.12c-2.8,3.28-5.57,5.08-7.79,5.08-5.34,0-5.16-8.96-4.74-16.39.09-1.6.23-2.62-.25-3.2-.34-.42-.91-.62-1.73-.63h-.1c-1.9,0-2.3.39-3.27,3.21-2.02,5.86-6.02,15.7-10.04,15.7-1.11,0-1.96-.39-2.55-1.13-1.95-2.49-.47-8.69.72-13.68.21-.9.42-1.76.59-2.55.26-1.18.18-2.05-.24-2.57s-1.25-.73-2.36-.64c-1.72.14-2.82.86-3.35,4.13l-.11.68-.4-.48c-.75-1.11-2.22-2.43-4.94-2.43-.24,0-.49,0-.74.03-2.9.24-6.21,2.26-8.63,5.28-2.82,3.52-4.17,7.98-3.8,12.56.02.24.05.47.09.71l.02.13-.09.1c-1.69,1.84-3.41,2.77-5.12,2.77-2.63-.02-4.14-1.98-4.14-5.24,0-5.49,3.72-22.02,3.72-28.01,0-6.37-2.84-9.84-7.77-9.88h-.07c-7.2,0-12.81,8.17-18.18,24.97-.49,1.54-1.03,3.32-1.49,4.85l-.75,2.53.22-2.63c.5-5.85.84-11.55,1.02-16.93.27-8.12-.83-13.35-3.36-15.98-1.36-1.42-3.17-2.12-5.51-2.14h-.06c-8.81,0-13.03,14.86-16.1,25.34-.93,3.16-2.76,10.3-3.98,15.18l.72-1.18c.54-6.14,2.11-21.53,2.01-29.88-.11-8.96-3.09-12.97-9.67-13.02h-.08c-3.51,0-5.95,1.75-7.38,3.21-2.29,2.35-3.72,5.79-3.64,8.76.05,1.8,1.16,3.41,1.99,3.41.55,0,.85-.73.98-1.16,2.04-6.73,4.67-10,8.05-10,1.4.01,2.45.42,3.23,1.26,2.64,2.83,2.16,10.48,1.29,24.37-.28,4.48-.6,9.55-.87,15.32-.05.99-.11,1.95-.17,2.85-.26,4.01-.46,7.17,1.06,7.41,1.98.31,3.26-.49,3.92-2.45.98-2.9,3.17-10.84,7.41-25.34,4.07-13.92,7.14-18.98,11.07-18.98,4.54,0,4.88,7.8,4.05,24.25-.18,3.49-.41,7.44-.6,11.74-.03.6-.05,1.19-.08,1.75-.17,3.56-.31,6.37.7,7.45.32.34.75.5,1.32.5,1.97,0,2.56-1.73,3.54-4.59.17-.51.36-1.04.56-1.61,6.75-18.61,11.73-34.75,18.43-34.75,2.01,0,3.57,1.63,3.57,4.81,0,7.34-3.59,21.53-3.59,28.72,0,2.58.74,4.89,2.14,6.52,1.44,1.67,3.45,2.56,5.82,2.58h.05c2.24,0,4.57-1.09,6.94-3.23l.22-.2.18.24c1.56,2.09,4.07,3.22,6.78,3.01,4.16-.32,7.65-4.03,8.95-7.52l.25-.68.25.68c.96,2.59,3.05,5.72,7.51,5.35h.03Z"/><path id="Fill-8" class="cls-1" d="M157.21,130.56c-1.86,0-3.36,1.46-3.37,3.26,0,1.81,1.48,3.3,3.32,3.31l.03.27v-.27c1.83,0,3.33-1.46,3.35-3.26,0-1.81-1.48-3.3-3.32-3.32"/><path id="Fill-9" class="cls-1" d="M274.05,130.56c-1.86,0-3.36,1.46-3.37,3.26-.01,1.81,1.48,3.3,3.32,3.31l.03.27v-.27c1.83,0,3.33-1.46,3.35-3.26.01-1.81-1.48-3.3-3.32-3.32"/></g></svg>