<?xml version="1.0" encoding="UTF-8"?><svg id="Layer_2" xmlns="http://www.w3.org/2000/svg" viewBox="0 0 378.78 267.19"><defs><style>.cls-1{fill:#fff;}.cls-2{fill:none;}.cls-3{fill:#5e8e3e;}.cls-4{fill:#95bf47;}</style></defs><g id="Layer_51"><g id="Shopify"><path class="cls-4" d="M98.17,105.3c-.05-.47-.47-.68-.78-.68s-7.16-.52-7.16-.52c0,0-4.76-4.76-5.33-5.23-.52-.52-1.52-.37-1.93-.26-.05,0-1.05.31-2.67.84-1.62-4.65-4.39-8.89-9.36-8.89h-.47c-1.36-1.78-3.14-2.61-4.6-2.61-11.5,0-17.05,14.38-18.77,21.7-4.5,1.41-7.69,2.35-8.05,2.51-2.51.78-2.56.84-2.88,3.19-.26,1.78-6.8,52.34-6.8,52.34l50.88,9.52,27.61-5.96c.05-.1-9.62-65.47-9.67-65.94h-.02ZM77.46,100.18c-1.25.37-2.77.84-4.29,1.36v-.94c0-2.82-.37-5.12-1.05-6.95,2.61.31,4.24,3.19,5.33,6.54h.01ZM68.94,94.22c.68,1.78,1.15,4.29,1.15,7.74v.52c-2.82.89-5.8,1.78-8.89,2.77,1.73-6.59,5.02-9.83,7.74-11.03h0ZM65.59,90.98c.52,0,1.05.21,1.46.52-3.71,1.73-7.63,6.07-9.26,14.85-2.46.78-4.81,1.46-7.06,2.2,1.88-6.69,6.59-17.57,14.85-17.57h.01Z"/><path class="cls-3" d="M97.38,104.52c-.31,0-7.16-.52-7.16-.52,0,0-4.76-4.76-5.33-5.23-.21-.21-.47-.31-.68-.31l-3.82,78.75,27.61-5.96s-9.67-65.47-9.73-65.94c-.21-.47-.58-.68-.89-.78h0Z"/><path class="cls-1" d="M70.92,119.79l-3.35,10.09s-3.03-1.62-6.64-1.62c-5.39,0-5.65,3.4-5.65,4.24,0,4.6,12.03,6.38,12.03,17.2,0,8.52-5.39,14.01-12.65,14.01-8.78,0-13.18-5.44-13.18-5.44l2.35-7.74s4.6,3.97,8.47,3.97c2.56,0,3.61-1.99,3.61-3.45,0-6.01-9.83-6.27-9.83-16.21,0-8.31,5.96-16.37,18.04-16.37,4.5-.05,6.8,1.31,6.8,1.31h0Z"/><path class="cls-1" d="M140.05,138.77c-2.77-1.46-4.18-2.77-4.18-4.5,0-2.2,1.99-3.61,5.07-3.61,3.61,0,6.8,1.46,6.8,1.46l2.51-7.69s-2.3-1.78-9.1-1.78c-9.46,0-16.05,5.44-16.05,13.07,0,4.34,3.09,7.63,7.16,9.99,3.35,1.83,4.5,3.19,4.5,5.18s-1.67,3.71-4.76,3.71c-4.55,0-8.89-2.35-8.89-2.35l-2.67,7.69s3.97,2.67,10.67,2.67c9.73,0,16.79-4.81,16.79-13.44-.1-4.71-3.61-7.95-7.84-10.41h-.01ZM178.85,122.56c-4.81,0-8.58,2.3-11.45,5.75l-.1-.05,4.18-21.75h-10.82l-10.56,55.43h10.82l3.61-18.93c1.41-7.16,5.12-11.61,8.58-11.61,2.46,0,3.4,1.67,3.4,4.03,0,1.46-.1,3.35-.47,4.81l-4.08,21.7h10.82l4.24-22.38c.47-2.35.78-5.18.78-7.11-.05-6.22-3.24-9.88-8.94-9.88h0ZM212.27,122.56c-13.07,0-21.7,11.77-21.7,24.89,0,8.37,5.18,15.16,14.9,15.16,12.81,0,21.44-11.45,21.44-24.89.05-7.79-4.44-15.16-14.64-15.16ZM206.93,154.35c-3.71,0-5.23-3.14-5.23-7.11,0-6.22,3.19-16.31,9.1-16.31,3.82,0,5.12,3.35,5.12,6.54,0,6.64-3.29,16.89-8.99,16.89h0ZM254.67,122.56c-7.32,0-11.45,6.48-11.45,6.48h-.1l.63-5.8h-9.62c-.47,3.92-1.36,9.94-2.2,14.38l-7.48,39.69h10.82l3.03-16.05h.26s2.25,1.41,6.33,1.41c12.76,0,21.07-13.07,21.07-26.25-.05-7.32-3.35-13.86-11.29-13.86h0ZM244.32,154.46c-2.82,0-4.5-1.62-4.5-1.62l1.78-10.09c1.25-6.8,4.81-11.24,8.58-11.24,3.35,0,4.34,3.09,4.34,5.96.05,7.01-4.13,16.99-10.2,16.99h0ZM281.39,107.03c-3.45,0-6.22,2.77-6.22,6.27,0,3.19,2.04,5.44,5.12,5.44h.1c3.4,0,6.27-2.3,6.33-6.27.05-3.19-2.09-5.44-5.33-5.44ZM266.23,161.88h10.82l7.32-38.49h-10.88M311.99,123.34h-7.53l.37-1.78c.63-3.71,2.82-6.95,6.48-6.95,1.93,0,3.45.58,3.45.58l2.09-8.52s-1.83-.94-5.91-.94c-3.82,0-7.69,1.1-10.62,3.61-3.71,3.14-5.44,7.69-6.27,12.29l-.31,1.78h-5.07l-1.62,8.21h5.07l-5.75,30.33h10.82l5.75-30.33h7.48l1.57-8.26h0v-.02ZM338.08,123.4s-6.8,17.1-9.78,26.46h-.1c-.21-3.03-2.67-26.46-2.67-26.46h-11.4l6.54,35.24c.1.78.05,1.25-.26,1.78-1.25,2.46-3.4,4.81-5.91,6.54-2.04,1.46-4.34,2.46-6.17,3.09l3.03,9.2c2.2-.47,6.8-2.3,10.62-5.91,4.92-4.6,9.52-11.77,14.22-21.49l13.23-28.5h-11.35v.05h0Z"/><rect class="cls-2" width="378.78" height="267.19"/></g></g></svg>