<?xml version="1.0" encoding="UTF-8"?><svg id="Layer_2" xmlns="http://www.w3.org/2000/svg" viewBox="0 0 400 300"><defs><style>.cls-1,.cls-2{fill:#635bff;}.cls-2{fill-rule:evenodd;}.cls-3{fill:none;}</style></defs><g id="Layer_51"><g id="BACKSQUARE"><rect class="cls-3" width="400" height="300"/></g><g id="Stripe"><path class="cls-2" d="M334.54,151.4c0-18.83-9.13-33.7-26.57-33.7s-28.11,14.87-28.11,33.55c0,22.15,12.51,33.33,30.46,33.33,8.76,0,15.38-1.98,20.39-4.78v-14.72c-5,2.5-10.74,4.05-18.03,4.05s-13.46-2.5-14.28-11.18h35.98c0-.95.15-4.78.15-6.55h0ZM298.19,144.42c0-8.31,5.08-11.77,9.72-11.77s9.27,3.46,9.27,11.77h-18.98Z"/><path class="cls-2" d="M251.46,117.7c-7.21,0-11.85,3.39-14.43,5.74l-.95-4.56h-16.19v85.79l18.39-3.9.07-20.83c2.65,1.91,6.55,4.64,13.02,4.64,13.17,0,25.17-10.6,25.17-33.92-.07-21.34-12.21-32.97-25.09-32.97h0ZM247.05,168.4c-4.34,0-6.91-1.54-8.68-3.46l-.07-27.3c1.91-2.13,4.56-3.61,8.76-3.61,6.69,0,11.33,7.5,11.33,17.14s-4.56,17.22-11.33,17.22Z"/><polygon class="cls-2" points="194.59 113.36 213.05 109.39 213.05 94.45 194.59 98.36 194.59 113.36"/><rect class="cls-1" x="194.59" y="118.95" width="18.47" height="64.39"/><path class="cls-2" d="M174.79,124.4l-1.18-5.45h-15.9v64.39h18.39v-43.64c4.34-5.67,11.7-4.64,13.98-3.83v-16.92c-2.35-.88-10.96-2.5-15.31,5.45h0Z"/><path class="cls-2" d="M137.99,102.99l-17.95,3.83-.07,58.94c0,10.89,8.17,18.91,19.06,18.91,6.03,0,10.45-1.1,12.87-2.43v-14.94c-2.35.95-13.98,4.34-13.98-6.55v-26.12h13.98v-15.67h-13.98l.07-15.97h0Z"/><path class="cls-2" d="M88.25,137.65c0-2.87,2.35-3.98,6.25-3.98,5.59,0,12.65,1.69,18.25,4.71v-17.29c-6.11-2.43-12.14-3.39-18.25-3.39-14.94,0-24.87,7.8-24.87,20.83,0,20.31,27.96,17.07,27.96,25.83,0,3.39-2.94,4.49-7.06,4.49-6.11,0-13.91-2.5-20.09-5.89v17.51c6.84,2.94,13.76,4.2,20.09,4.2,15.31,0,25.83-7.58,25.83-20.75-.07-21.93-28.11-18.03-28.11-26.27h0Z"/></g></g></svg>