<?xml version="1.0" encoding="UTF-8"?><svg id="Layer_2" xmlns="http://www.w3.org/2000/svg" viewBox="0 0 400 300"><defs><style>.cls-1{fill:none;}.cls-2{fill:#03363d;}</style></defs><g id="Layer_51"><g id="BACKSQUARE"><rect class="cls-1" width="400" height="300"/></g><path class="cls-2" d="M195.77,101.47v61.39h-50.84l50.84-61.39ZM195.77,79.44c0,14.04-11.38,25.42-25.42,25.42s-25.42-11.38-25.42-25.42h50.84ZM204.15,162.86c0-14.04,11.38-25.42,25.42-25.42s25.42,11.38,25.42,25.42h-50.84ZM204.15,140.83v-61.39h50.86l-50.86,61.39h0ZM232.58,215.38c2.61.06,5.15-.92,7.04-2.72l3.49,3.77c-2.31,2.37-5.5,4.13-10.48,4.13-8.52,0-14.03-5.66-14.03-13.3-.14-7.21,5.59-13.17,12.79-13.31.15,0,.31,0,.46,0,8.46,0,13.26,6.44,12.84,15.37h-20c.71,3.71,3.32,6.08,7.87,6.08M238.66,205.06c-.54-3.46-2.61-6.02-6.74-6.02-3.85,0-6.53,2.18-7.22,6.02h13.97,0ZM101.23,215.09l15.39-15.64h-15.03v-4.91h22.17v5l-15.39,15.64h15.61v4.91h-22.75v-5h0ZM141.26,215.37c2.61.06,5.15-.92,7.04-2.72l3.49,3.77c-2.31,2.37-5.5,4.13-10.48,4.13-8.52,0-14.03-5.66-14.03-13.3-.14-7.21,5.59-13.17,12.79-13.31.15,0,.31,0,.46,0,8.46,0,13.26,6.44,12.84,15.37h-19.99c.71,3.71,3.32,6.08,7.87,6.08M147.35,205.05c-.54-3.46-2.61-6.02-6.74-6.02-3.85,0-6.53,2.18-7.22,6.02h13.97,0ZM186.63,207.25c0-8.16,6.11-13.29,12.84-13.29,3.27-.04,6.39,1.36,8.52,3.83v-15.08h5.44v37.31h-5.44v-3.52c-2.1,2.58-5.25,4.06-8.57,4.04-6.53,0-12.78-5.17-12.78-13.29M208.3,207.2c-.12-4.48-3.85-8.01-8.33-7.89-4.48.12-8.01,3.85-7.89,8.33.12,4.4,3.72,7.9,8.11,7.9,4.68,0,8.1-3.73,8.1-8.33M248.26,214.59l4.93-2.56c1.33,2.37,3.86,3.8,6.57,3.73,3.08,0,4.68-1.58,4.68-3.37,0-2.05-2.98-2.5-6.21-3.17-4.35-.92-8.88-2.36-8.88-7.61,0-4.04,3.85-7.78,9.9-7.72,4.77,0,8.32,1.89,10.33,4.95l-4.57,2.5c-1.28-1.9-3.46-3-5.75-2.92-2.93,0-4.42,1.43-4.42,3.07,0,1.84,2.36,2.35,6.06,3.17,4.21.92,8.97,2.3,8.97,7.61,0,3.52-3.08,8.28-10.37,8.23-5.33,0-9.08-2.15-11.24-5.93M284.65,208.67l-4.31,4.7v6.64h-5.44v-37.31h5.44v24.44l11.55-12.67h6.62l-10.01,10.93,10.27,14.62h-6.16l-7.96-11.35h0ZM170.2,193.95c-6.47,0-11.88,4.19-11.88,11.15v14.93h5.55v-14.24c0-4.19,2.41-6.7,6.53-6.7s6.16,2.5,6.16,6.7v14.24h5.52v-14.93c0-6.95-5.44-11.15-11.88-11.15"/></g></svg>