<?xml version="1.0" encoding="UTF-8" standalone="no"?>
<!--
  Agent Red Customer Experience — Icon Master (The Beacon)
  Design: AR monogram on Agent Red rounded rectangle
  Usage: Source file for all icon/favicon exports
  © 2026 Remaker Digital, a DBA of VanDusen & Palmeter, LLC. All rights reserved.
-->

<svg
   viewBox="0 0 1200 1200"
   width="1200"
   height="1200"
   version="1.1"
   id="svg1"
   xml:space="preserve"
   xmlns="http://www.w3.org/2000/svg"
   xmlns:svg="http://www.w3.org/2000/svg"><defs
     id="defs1"><style
       id="style1">.cls-1{fill:#f8f8fa;}.cls-2{fill:#c41e2a;}</style></defs><!-- Background: Agent Red rounded rectangle --><!-- Corner radius: ~21% of width = 252px --><!-- AR Monogram: Inter Extra Bold 800, white, tight letter-spacing --><!-- Centered vertically, slight left offset for optical balance --><!-- Font metrics: Inter 800 at ~650px size, baseline ~780px from top --><g
     id="Layer_1-2"
     transform="scale(6.6272712,7.62825)"><g
       id="g15"
       transform="matrix(1.4097124,0,0,1.2289844,-1.3575699e-6,-2.0915938e-6)"><rect
         class="cls-2"
         width="128.44464"
         height="128"
         id="rect1"
         x="0"
         y="0"
         style="fill:none;stroke-width:1.38949" /><rect
         class="cls-3"
         x="1.1393833"
         y="1.3269691"
         width="126.27702"
         height="125.34606"
         id="rect2"
         style="fill:#ff3621;stroke-width:1.38949" /><path
         class="cls-1"
         d="m 50.09813,43.366045 h 11.880156 v 7.239253 h 0.180634 c 2.250977,-5.307859 7.558836,-8.378636 13.505861,-8.378636 1.625706,0 2.431611,0.236213 2.792879,0.319583 v 12.158054 c -1.167173,-0.402953 -2.612245,-0.569692 -4.057316,-0.569692 -7.378202,0 -11.699522,4.752062 -11.699522,11.268779 V 85.773338 H 50.09813 v -42.421188 0 z"
         id="path3"
         style="fill:#ffffff;stroke-width:1.38949" /><g
         id="g14"
         transform="translate(0.06252497)"><path
           class="cls-1"
           d="M 24.607902,89.559702 V 73.455491 c 0,-3.862788 -3.946157,-4.988276 -7.405992,-5.238385 v -8.44811 c 3.459835,-0.08337 7.405992,-1.208858 7.405992,-4.668693 V 38.523664 c 0,-6.600086 5.87755,-11.435518 11.907945,-11.435518 h 6.91967 v 9.976551 h -3.696049 c -3.293095,0 -4.099001,1.848025 -4.099001,4.668693 v 14.006078 c 0,5.794182 -4.585323,7.725575 -8.211897,8.211898 v 0.166738 c 2.820669,0.486323 8.128528,1.931394 8.211897,8.614851 v 13.603126 c 0,2.820668 0.805906,4.668693 4.099001,4.668693 h 3.696049 v 9.907076 h -6.91967 c -6.030395,0 -11.907945,-4.752062 -11.907945,-11.352148 z"
           id="path2"
           style="fill:#ffffff;stroke-width:1.38949" /><path
           class="cls-1"
           d="m 84.99522,91.004771 h 3.626573 c 3.376466,0 4.182371,-1.848024 4.182371,-4.668692 V 72.732953 c 0,-6.683456 5.307859,-8.128528 8.128526,-8.61485 V 63.951364 C 97.389487,63.465042 92.804164,61.533648 92.804164,55.739467 V 41.733389 c 0,-2.820669 -0.805905,-4.668693 -4.182371,-4.668693 H 84.99522 v -9.976552 h 6.919669 c 6.030395,0 11.907941,4.835432 11.907941,11.435518 v 16.576639 c 0,3.459835 3.94616,4.585323 7.406,4.668693 v 8.44811 c -3.54321,0.236214 -7.406,1.361702 -7.406,5.238385 V 89.5597 c 0,6.600086 -5.877546,11.35215 -11.907941,11.35215 H 84.99522 Z"
           id="path4"
           style="fill:#ffffff;stroke-width:1.38949" /></g></g></g></svg>
